<?xml version="1.0" encoding="UTF-8"?>
<svg width="71px" height="42px" viewBox="0 0 71 42" version="1.1" xmlns="http://www.w3.org/2000/svg" xmlns:xlink="http://www.w3.org/1999/xlink">
    <!-- Generator: Sketch 49.3 (51167) - http://www.bohemiancoding.com/sketch -->
    <title>2018</title>
    <desc>Created with Sketch.</desc>
    <defs></defs>
    <g id="web" stroke="none" stroke-width="1" fill="none" fill-rule="evenodd">
        <g id="fedc_web_index" transform="translate(-743.000000, -225.000000)" fill="#FFFFFF">
            <g id="Group-4" transform="translate(520.000000, 225.000000)">
                <path d="M223.54,41.7004938 C223.227998,41.7787065 223.072,41.6618139 223.072,41.3498123 L223.072,40.0178123 C223.072,39.8018112 223.143999,39.5917643 223.288,39.3876653 C225.088009,36.8004271 227.799982,32.7846213 231.424,27.3401273 C233.680011,23.9185746 234.808,21.4158318 234.808,19.8318239 C234.808,18.5598175 234.376004,17.6481207 233.512,17.096706 C232.647996,16.5452914 231.520007,16.4440602 230.128,16.7930095 C228.759993,17.1359423 227.656004,17.8026871 226.816,18.7932639 C225.975996,19.7838406 225.568,20.912107 225.592,22.178097 L225.592,23.186097 C225.592,23.4980986 225.436002,23.6932028 225.124,23.7714156 L223.468,24.1865428 C223.155998,24.2647555 223,24.1478629 223,23.8358613 L223,22.5038613 C223.048,20.6438194 223.737993,18.9828663 225.07,17.5209523 C226.402007,16.0590384 228.08799,15.0724006 230.128,14.5610095 C231.568007,14.2000275 232.839994,14.1571621 233.944,14.432412 C235.048006,14.7076619 235.899997,15.2560765 236.5,16.0776722 C237.100003,16.8992679 237.4,17.9220534 237.4,19.1460596 C237.4,21.1860698 236.272011,23.9288101 234.016,27.374363 C232.935995,29.0611065 230.944015,32.0444326 228.04,36.3244307 L226.564,38.4944354 C226.516,38.5544684 226.504,38.605476 226.528,38.6474599 C226.552,38.6894438 226.6,38.701411 226.672,38.6833619 L237.688,35.9218635 C238.000002,35.8436508 238.156,35.9605434 238.156,36.272545 L238.156,37.568545 C238.156,37.8805465 238.000002,38.0756508 237.688,38.1538635 L223.54,41.7004938 Z M252.16,34.8860128 C249.855988,35.4635839 248.020007,35.2638357 246.652,34.2867619 C245.283993,33.3096882 244.6,31.7171697 244.6,29.5091587 L244.6,18.1331587 C244.6,15.9251477 245.283993,13.9957014 246.652,12.3447619 C248.020007,10.6938225 249.855988,9.57958394 252.16,9.00201277 C254.488012,8.41842523 256.347993,8.61215724 257.74,9.58321459 C259.132007,10.5542719 259.828,12.1317824 259.828,14.3157933 L259.828,25.6917933 C259.828,27.8998044 259.132007,29.8382587 257.74,31.5072146 C256.347993,33.1761704 254.488012,34.3024252 252.16,34.8860128 Z M252.16,32.6540128 C253.696008,32.2689653 254.931995,31.5151315 255.868,30.3924888 C256.804005,29.2698461 257.272,27.9645406 257.272,26.4765331 L257.272,14.8485331 C257.272,13.3845258 256.810005,12.3243509 255.886,11.6679766 C254.961995,11.0116022 253.720008,10.878949 252.16,11.2700128 C250.647992,11.6490439 249.436005,12.3968614 248.524,13.5134877 C247.611995,14.6301141 247.156,15.9204116 247.156,17.3844189 L247.156,29.0124189 C247.156,30.5004263 247.611995,31.5741052 248.524,32.2334877 C249.436005,32.8928702 250.647992,33.0330439 252.16,32.6540128 Z M269.368,5.15629968 C269.536001,5.01818463 269.739999,4.91904677 269.98,4.8588831 L271.744,4.41668239 C272.056001,4.33846962 272.212,4.45536227 272.212,4.76736383 L272.212,29.0313638 C272.212,29.3433654 272.056001,29.5384696 271.744,29.6166824 L270.124,30.0227851 C269.811998,30.1009978 269.656,29.9841052 269.656,29.6721036 L269.656,7.74810364 C269.656,7.67610328 269.638,7.63261597 269.602,7.6176404 C269.566,7.60266483 269.512,7.61620145 269.44,7.65825067 L265.66,10.1898236 C265.612,10.2258565 265.54,10.2559052 265.444,10.2799707 C265.227999,10.334118 265.12,10.2291925 265.12,9.9651912 L265.12,8.8491912 C265.12,8.60919 265.227999,8.40211855 265.444,8.22797066 L269.368,5.15629968 Z M293.164,13.6631023 C293.620002,14.484796 293.848,15.6036296 293.848,17.0196367 C293.848,18.6516449 293.512003,20.1398587 292.84,21.4843228 C292.263997,22.6127205 291.442005,23.5867703 290.374,24.4065014 C289.305995,25.2262324 288.064007,25.813572 286.648,26.1685376 C285.231993,26.5235032 283.984005,26.5483524 282.904,26.243086 C281.823994,25.9378196 280.996003,25.3293893 280.42,24.4177768 C279.771997,23.428213 279.448,22.1534463 279.448,20.5934385 C279.448,19.2734319 279.687997,18.0132811 280.168,16.8129484 C280.744003,15.4685496 281.547995,14.3670133 282.58,13.5083066 C282.7,13.4062244 282.7,13.3342251 282.58,13.2923066 C281.739996,12.9748768 281.068002,12.5193387 280.564,11.9256788 C279.843996,11.0741646 279.484,9.98842055 279.484,8.66841395 C279.484,7.32440723 279.819996,6.06419113 280.492,4.88772783 C281.092003,3.77731387 281.925995,2.82425571 282.994,2.02852477 C284.062005,1.23279383 285.279993,0.663470456 286.648,0.320537574 C288.160007,-0.0584935061 289.455994,-0.101375236 290.536,0.191891098 C291.616005,0.485157432 292.443997,1.11158757 293.02,2.07120029 C293.548002,2.87484491 293.812,3.8766552 293.812,5.0766612 C293.812,6.3966678 293.464003,7.6238924 292.768,8.75837183 C292.215997,9.71275233 291.532004,10.5442096 290.716,11.2527686 C290.571999,11.3848673 290.571999,11.4688664 290.716,11.5047686 C291.820005,11.8520188 292.635997,12.5714562 293.164,13.6631023 Z M282.004,8.25269864 C282.004,9.26070368 282.267997,10.0705159 282.796,10.6821595 C283.180002,11.1619006 283.683997,11.4855543 284.308,11.6531304 C284.932003,11.8207065 285.651996,11.8142164 286.468,11.6336601 L286.684,11.5795131 C287.548004,11.3629239 288.309997,10.9919089 288.97,10.466457 C289.630003,9.94100517 290.175998,9.3121398 290.608,8.57984209 C291.064002,7.76952765 291.292,6.87238143 291.292,5.88837651 C291.292,5.00037207 291.112002,4.27750182 290.752,3.71974407 C290.367998,3.12000245 289.822003,2.71087819 289.114,2.49235902 C288.405996,2.27383985 287.572005,2.28490742 286.612,2.52556208 C285.699995,2.754184 284.896003,3.15372727 284.2,3.72420387 C283.503996,4.29468048 282.964002,4.97604123 282.58,5.76830657 C282.195998,6.58457203 282.004,7.41269444 282.004,8.25269864 Z M290.428,21.1889646 C291.004003,20.084567 291.292,18.8363835 291.292,17.4443765 C291.292,16.6043723 291.148001,15.8124782 290.86,15.0686706 C290.523998,14.2888954 289.996003,13.7552601 289.276,13.4677488 C288.555996,13.1802374 287.680005,13.1658338 286.648,13.4245376 C284.65599,13.923896 283.288004,15.1308151 282.544,17.0453311 C282.207998,17.8255637 282.04,18.7556687 282.04,19.8356741 C282.04,21.1076805 282.291997,22.1484986 282.796,22.9581595 C283.612004,24.0736097 284.895991,24.4117323 286.648,23.9725376 C288.352008,23.5453756 289.611996,22.6175272 290.428,21.1889646 Z" id="2018"></path>
            </g>
        </g>
    </g>
</svg>