<?xml version="1.0" encoding="UTF-8"?>
<svg width="118px" height="183px" viewBox="0 0 118 183" version="1.1" xmlns="http://www.w3.org/2000/svg" xmlns:xlink="http://www.w3.org/1999/xlink">
    <!-- Generator: Sketch 49.3 (51167) - http://www.bohemiancoding.com/sketch -->
    <title>fedc_</title>
    <desc>Created with Sketch.</desc>
    <defs></defs>
    <g id="web" stroke="none" stroke-width="1" fill="none" fill-rule="evenodd">
        <g id="fedc_web_index" transform="translate(-579.000000, -473.000000)">
            <g id="Group-4" transform="translate(520.000000, 225.000000)">
                <g id="fedc_" transform="translate(59.000000, 248.000000)">
                    <path d="M34.1459251,40.518447 C33.9076713,40.578113 33.7343984,40.5133184 33.6261013,40.3240612 L28.8827092,31.5153336 C28.8393903,31.4396307 28.774413,31.412628 28.6877753,31.4343248 L23.2621145,32.7930751 C23.1538173,32.820196 23.0996696,32.88785 23.0996696,32.996039 L23.0996696,42.86283 C23.0996696,43.1441215 22.9588854,43.3200218 22.6773127,43.3905361 L21.2153083,43.7566665 C20.9337357,43.8271808 20.7929515,43.7217938 20.7929515,43.4405023 L20.7929515,21.5323316 C20.7929515,21.2510401 20.9337357,21.0751398 21.2153083,21.0046255 L29.5324889,18.9217506 C31.3952002,18.4552711 32.9005082,18.6516896 34.0484581,19.5110118 C35.196408,20.3703341 35.7703744,21.7304005 35.7703744,23.591252 C35.7703744,25.1058985 35.3642661,26.4896212 34.5520374,27.7424617 C33.7398087,28.9953021 32.6297794,29.9602773 31.2219162,30.6374161 C31.1136191,30.6861748 31.0811304,30.7592234 31.1244493,30.8565641 L35.9653083,39.5759699 C36.0086272,39.6516728 36.0302863,39.7111611 36.0302863,39.7544367 C36.0302863,39.949177 35.9003316,40.0790903 35.6404184,40.1441804 L34.1459251,40.518447 Z M23.2621145,22.504349 C23.1538173,22.5314699 23.0996696,22.5991239 23.0996696,22.7073129 L23.0996696,30.8214502 C23.0996696,30.9296393 23.1538173,30.9701727 23.2621145,30.9430518 L29.272577,29.4378493 C30.5288241,29.1232469 31.5468022,28.4842489 32.3265418,27.5208362 C33.1062814,26.5574236 33.4961453,25.4482374 33.4961453,24.1932446 C33.4961453,22.9382518 33.1062814,22.0135145 32.3265418,21.419005 C31.5468022,20.8244955 30.5288241,20.6845441 29.272577,20.9991465 L23.2621145,22.504349 Z M50.6178414,36.6530309 C49.0800216,37.0381477 47.7263274,37.0634104 46.556718,36.7288197 C45.3871086,36.394229 44.4828409,35.7389577 43.8438876,34.7629861 C43.2049343,33.7870145 42.8854625,32.5525429 42.8854625,31.0595342 L42.8854625,22.8804838 C42.8854625,21.387475 43.2049343,19.9929925 43.8438876,18.6969943 C44.4828409,17.400996 45.3871086,16.2928125 46.556718,15.3724103 C47.7263274,14.4520082 49.0800216,13.7992585 50.6178414,13.4141417 C52.1556611,13.0290249 53.5147701,13.0024062 54.6952092,13.3342848 C55.8756483,13.6661634 56.7853308,14.3200786 57.4242841,15.2960502 C58.0632374,16.2720218 58.3827092,17.5064934 58.3827092,18.9995022 L58.3827092,27.1785526 C58.3827092,28.6715613 58.0632374,30.0660439 57.4242841,31.3620421 C56.7853308,32.6580403 55.8756483,33.7675799 54.6952092,34.6906942 C53.5147701,35.6138084 52.1556611,36.2679141 50.6178414,36.6530309 Z M50.6178414,34.6731814 C52.2639583,34.2609437 53.5851638,33.4324116 54.5814977,32.1875601 C55.5778317,30.9427087 56.0759911,29.4980679 56.0759911,27.8535945 L56.0759911,19.5447179 C56.0759911,17.9002446 55.5778317,16.699703 54.5814977,15.9430572 C53.5851638,15.1864115 52.2639583,15.01421 50.6178414,15.4264477 C48.9933839,15.8332612 47.6830079,16.6644907 46.686674,17.9201611 C45.69034,19.1758314 45.1921806,20.6258815 45.1921806,22.2703549 L45.1921806,30.5792315 C45.1921806,32.2237049 45.69034,33.4188371 46.686674,34.1646639 C47.6830079,34.9104908 48.9933839,35.0799949 50.6178414,34.6731814 Z M67.1547356,32.2520376 C66.873163,32.3225519 66.7323788,32.2171649 66.7323788,31.9358734 L66.7323788,10.0601592 C66.7323788,9.77886774 66.873163,9.60296746 67.1547356,9.53245312 L68.61674,9.16632278 C68.8116749,9.11750515 68.9741182,9.17419309 69.1040748,9.33638827 L80.0203744,24.2589778 C80.0636933,24.3130429 80.1070115,24.3292416 80.1503303,24.3075743 C80.1936492,24.285907 80.2153083,24.2317986 80.2153083,24.1452474 L80.2153083,6.68362389 C80.2153083,6.40233239 80.3560925,6.22643211 80.6376651,6.15591776 L82.0996695,5.78978742 C82.3812422,5.71927308 82.5220264,5.82466008 82.5220264,6.10595158 L82.5220264,27.9816658 C82.5220264,28.2629573 82.3812422,28.4388575 82.0996695,28.5093719 L80.6376651,28.8755022 C80.4427302,28.9243198 80.2802869,28.8676319 80.1503303,28.7054367 L69.2015418,13.7260703 C69.1582229,13.6720052 69.1149047,13.6558066 69.0715859,13.6774738 C69.028267,13.6991411 69.0066079,13.7532495 69.0066079,13.8398008 L69.0390969,31.3582011 C69.0390969,31.6394926 68.8983127,31.8153929 68.61674,31.8859072 L67.1547356,32.2520376 Z M105.134361,0.0212005208 C105.415934,-0.049313823 105.556718,0.0560731741 105.556718,0.337364674 L105.556718,1.53825699 C105.556718,1.81954849 105.415934,1.99544878 105.134361,2.06596312 L98.8964757,3.62811924 C98.7881786,3.65524014 98.7340308,3.72289409 98.7340308,3.83108313 L98.7340308,23.9216871 C98.7340308,24.2029786 98.5932466,24.3788789 98.311674,24.4493932 L96.8496696,24.8155236 C96.5680969,24.8860379 96.4273127,24.7806509 96.4273127,24.4993594 L96.4273127,4.40875544 C96.4273127,4.30056641 96.373165,4.26003295 96.2648678,4.28715385 L90.2868942,5.78422012 C90.0053216,5.85473447 89.8645374,5.74934747 89.8645374,5.46805597 L89.8645374,4.26716365 C89.8645374,3.98587215 90.0053216,3.80997187 90.2868942,3.73945752 L105.134361,0.0212005208 Z M23.7169604,88.2087173 C23.4353877,88.2792317 23.2946035,88.1738447 23.2946035,87.8925532 L23.2946035,66.016839 C23.2946035,65.7355475 23.4353877,65.5596472 23.7169604,65.4891329 L25.1789648,65.1230025 C25.3738997,65.0741849 25.536343,65.1308729 25.6662996,65.293068 L36.5825991,80.2156576 C36.625918,80.2697227 36.6692362,80.2859213 36.7125551,80.2642541 C36.7558739,80.2425868 36.777533,80.1884784 36.777533,80.1019271 L36.777533,62.6403037 C36.777533,62.3590122 36.9183172,62.1831119 37.1998899,62.1125975 L38.6618943,61.7464672 C38.9434669,61.6759528 39.0842511,61.7813398 39.0842511,62.0626313 L39.0842511,83.9383455 C39.0842511,84.219637 38.9434669,84.3955373 38.6618943,84.4660516 L37.1998899,84.832182 C37.004955,84.8809996 36.8425117,84.8243117 36.7125551,84.6621165 L25.7637665,69.68275 C25.7204477,69.628685 25.6771294,69.6124863 25.6338106,69.6341536 C25.5904917,69.6558209 25.5688326,69.7099293 25.5688326,69.7964805 L25.6013216,87.3148809 C25.6013216,87.5961724 25.4605374,87.7720727 25.1789648,87.842587 L23.7169604,88.2087173 Z M48.0512115,82.1146812 C47.7696388,82.1851956 47.6288546,82.0798086 47.6288546,81.7985171 L47.6288546,59.9228029 C47.6288546,59.6415114 47.7696388,59.4656111 48.0512115,59.3950968 L55.6211454,57.4993553 C57.7654292,56.9623614 59.471084,57.0977882 60.7381608,57.9056396 C62.0052376,58.7134911 62.6387665,60.0802787 62.6387665,62.0060436 L62.6387665,72.1974001 C62.6387665,74.123165 62.0052376,75.8072624 60.7381608,77.249743 C59.471084,78.6922235 57.7654292,79.6819459 55.6211454,80.2189397 L48.0512115,82.1146812 Z M49.9355727,79.4681911 C49.9355727,79.5763802 49.9897205,79.6169136 50.0980176,79.5897927 L55.7186123,78.182225 C57.1264755,77.8296532 58.2473343,77.137844 59.0812225,76.1067763 C59.9151106,75.0757087 60.3320485,73.8677831 60.3320485,72.4829635 L60.3320485,62.9082814 C60.3320485,61.5018239 59.9205254,60.4905514 59.097467,59.8744336 C58.2744085,59.2583158 57.1481349,59.1292567 55.7186123,59.4872526 L50.0980176,60.8948204 C49.9897205,60.9219413 49.9355727,60.9895952 49.9355727,61.0977843 L49.9355727,79.4681911 Z M38.4344714,108.472332 C38.4344714,108.753624 38.2936872,108.929524 38.0121145,109.000038 L26.1861233,111.961626 C26.0778262,111.988747 26.0236784,112.056401 26.0236784,112.16459 L26.0236784,120.116445 C26.0236784,120.224634 26.0778262,120.265167 26.1861233,120.238046 L34.438326,118.171444 C34.7198986,118.100929 34.8606828,118.206316 34.8606828,118.487608 L34.8606828,119.656044 C34.8606828,119.937335 34.7198986,120.113235 34.438326,120.18375 L26.1861233,122.250352 C26.0778262,122.277473 26.0236784,122.345127 26.0236784,122.453316 L26.0236784,130.534997 C26.0236784,130.643186 26.0778262,130.683719 26.1861233,130.656598 L38.0121145,127.695011 C38.2936872,127.624496 38.4344714,127.729883 38.4344714,128.011175 L38.4344714,129.179611 C38.4344714,129.460902 38.2936872,129.636802 38.0121145,129.707317 L24.1393172,133.181487 C23.8577446,133.252001 23.7169604,133.146614 23.7169604,132.865323 L23.7169604,110.989609 C23.7169604,110.708317 23.8577446,110.532417 24.1393172,110.461902 L38.0121145,106.987732 C38.2936872,106.917218 38.4344714,107.022605 38.4344714,107.303897 L38.4344714,108.472332 Z M52.9245595,126.23244 C51.3434209,126.628405 49.9626527,126.72536 48.7822137,126.523308 C47.6017746,126.321257 46.692092,125.840441 46.0531388,125.080848 C45.4141855,124.321254 45.0947137,123.335614 45.0947137,122.123896 L45.0947137,121.215113 C45.0947137,120.933822 45.2354979,120.757921 45.5170705,120.687407 L46.9140969,120.337549 C47.1956695,120.267035 47.3364537,120.372422 47.3364537,120.653713 L47.3364537,121.43267 C47.3364537,122.666025 47.8562723,123.54199 48.8959251,124.06059 C49.9355779,124.579191 51.3325903,124.618811 53.0870044,124.179453 C54.7547807,123.761791 56.0218385,123.092872 56.8882159,122.172676 C57.7545932,121.25248 58.1877753,120.208177 58.1877753,119.039735 C58.1877753,118.282412 57.9874286,117.68346 57.5867291,117.242862 C57.1860296,116.802265 56.5741598,116.447015 55.7511013,116.177102 C54.9280429,115.907189 53.7476215,115.651046 52.2098018,115.408667 C50.5853443,115.166346 49.3237013,114.914316 48.4248348,114.652569 C47.5259683,114.390821 46.8003882,113.945042 46.2480727,113.315216 C45.6957572,112.685391 45.4196035,111.78627 45.4196035,110.617829 C45.4196035,108.800253 46.0531324,107.229752 47.3202093,105.90628 C48.5872861,104.582807 50.336259,103.64174 52.5671806,103.083049 C54.9497182,102.486389 56.8340606,102.577067 58.2202643,103.355086 C59.606468,104.133104 60.2995595,105.452519 60.2995595,107.313371 L60.2995595,107.930045 C60.2995595,108.211337 60.1587753,108.387237 59.8772026,108.457751 L58.4476872,108.815745 C58.1661146,108.88626 58.0253304,108.780873 58.0253304,108.499581 L58.0253304,108.012733 C58.0253304,106.75774 57.5380005,105.852002 56.563326,105.295491 C55.5886515,104.73898 54.2132982,104.683117 52.4372247,105.1279 C50.8994049,105.513017 49.7243983,106.121018 48.9121696,106.951921 C48.0999409,107.782824 47.6938326,108.7933 47.6938326,109.98338 C47.6938326,110.762341 47.8941793,111.355883 48.2948789,111.764024 C48.6955784,112.172165 49.2695447,112.471995 50.0167952,112.663522 C50.7640456,112.85505 51.9065635,113.061181 53.4443833,113.281923 C55.0255219,113.535092 56.3034092,113.82092 57.2780837,114.139415 C58.2527582,114.45791 59.0324861,114.949632 59.6172907,115.614597 C60.2020954,116.279562 60.4944934,117.196252 60.4944934,118.364693 C60.4944934,120.160631 59.8284758,121.771724 58.4964207,123.198021 C57.1643656,124.624317 55.3070971,125.63578 52.9245595,126.23244 Z M68.6817181,122.026716 C68.4001454,122.09723 68.2593612,121.991843 68.2593612,121.710552 L68.2593612,99.8348376 C68.2593612,99.5535461 68.4001454,99.3776458 68.6817181,99.3071315 L70.1437225,98.9410011 C70.4252951,98.8704868 70.5660793,98.9758738 70.5660793,99.2571653 L70.5660793,121.132879 C70.5660793,121.414171 70.4252951,121.590071 70.1437225,121.660586 L68.6817181,122.026716 Z M86.5181718,117.819578 C85.0020115,118.199271 83.6699764,118.235337 82.5220264,117.927779 C81.3740765,117.620221 80.4806383,117.005513 79.841685,116.083636 C79.2027318,115.161759 78.8832599,113.997609 78.8832599,112.591151 L78.8832599,103.633144 C78.8832599,102.226686 79.2027318,100.902526 79.841685,99.6606218 C80.4806383,98.4187181 81.3740765,97.3565216 82.5220264,96.4740003 C83.6699764,95.591479 85.0020115,94.9603816 86.5181718,94.5806889 C88.0126727,94.2064205 89.339293,94.1663005 90.4980727,94.4603276 C91.6568523,94.7543548 92.5502905,95.3474257 93.1784141,96.2395581 C93.8065376,97.1316906 94.1205947,98.2376933 94.1205947,99.5575996 L94.1205947,99.8821651 C94.1205947,100.163457 93.9798105,100.339357 93.6982379,100.409871 L92.2362335,100.776002 C91.9546609,100.846516 91.8138767,100.762766 91.8138767,100.524751 L91.8138767,100.167728 C91.8138767,98.7179954 91.3319615,97.6594387 90.3681167,96.9920268 C89.404272,96.3246149 88.1209698,96.1916056 86.5181718,96.592995 C84.9153738,96.9943843 83.6266569,97.7823241 82.6519824,98.9568379 C81.6773079,100.131352 81.189978,101.475912 81.189978,102.990558 L81.189978,112.078392 C81.189978,113.593039 81.6881375,114.690802 82.6844714,115.371716 C83.6808053,116.052629 84.9911813,116.189677 86.6156388,115.782863 C88.1967774,115.386898 89.4584204,114.638195 90.4006057,113.536731 C91.3427911,112.435267 91.8138767,111.159687 91.8138767,109.709954 L91.8138767,106.788865 C91.8138767,106.680675 91.7597289,106.640142 91.6514317,106.667263 L87.0055066,107.830744 C86.723934,107.901258 86.5831498,107.795871 86.5831498,107.51458 L86.5831498,106.346144 C86.5831498,106.064852 86.723934,105.888952 87.0055066,105.818438 L93.6982379,104.142374 C93.9798105,104.07186 94.1205947,104.177247 94.1205947,104.458539 L94.1205947,108.548064 C94.1205947,110.863309 93.432918,112.842254 92.0575441,114.484958 C90.6821701,116.127662 88.8357311,117.239191 86.5181718,117.819578 Z M102.632709,113.524356 C102.351137,113.59487 102.210352,113.489483 102.210352,113.208192 L102.210352,91.3324775 C102.210352,91.051186 102.351137,90.8752857 102.632709,90.8047714 L104.094714,90.438641 C104.289649,90.3898234 104.452092,90.4465113 104.582048,90.6087065 L115.498348,105.531296 C115.541667,105.585361 115.584985,105.60156 115.628304,105.579893 C115.671623,105.558225 115.693282,105.504117 115.693282,105.417566 L115.693282,87.9559421 C115.693282,87.6746506 115.834066,87.4987504 116.115639,87.428236 L117.577643,87.0621057 C117.859216,86.9915913 118,87.0969783 118,87.3782698 L118,109.253984 C118,109.535276 117.859216,109.711176 117.577643,109.78169 L116.115639,110.14782 C115.920704,110.196638 115.758261,110.13995 115.628304,109.977755 L104.679515,94.9983885 C104.636197,94.9443235 104.592878,94.9281248 104.549559,94.9497921 C104.506241,94.9714593 104.484582,95.0255678 104.484582,95.112119 L104.51707,112.630519 C104.51707,112.911811 104.376286,113.087711 104.094714,113.158225 L102.632709,113.524356 Z M30.3772026,176.957524 C28.8393829,177.342641 27.4856887,177.367903 26.3160793,177.033313 C25.1464699,176.698722 24.2422022,176.043451 23.6032489,175.067479 C22.9642956,174.091507 22.6448238,172.857036 22.6448238,171.364027 L22.6448238,163.184977 C22.6448238,161.691968 22.9642956,160.297485 23.6032489,159.001487 C24.2422022,157.705489 25.1464699,156.597305 26.3160793,155.676903 C27.4856887,154.756501 28.8393829,154.103751 30.3772026,153.718635 C31.9150224,153.333518 33.2741314,153.306899 34.4545705,153.638778 C35.6350096,153.970656 36.5446921,154.624572 37.1836454,155.600543 C37.8225986,156.576515 38.1420705,157.810986 38.1420705,159.303995 L38.1420705,167.483045 C38.1420705,168.976054 37.8225986,170.370537 37.1836454,171.666535 C36.5446921,172.962533 35.6350096,174.072073 34.4545705,174.995187 C33.2741314,175.918301 31.9150224,176.572407 30.3772026,176.957524 Z M30.3772026,174.977674 C32.0233195,174.565437 33.3445251,173.736904 34.340859,172.492053 C35.3371929,171.247202 35.8353524,169.802561 35.8353524,168.158087 L35.8353524,159.849211 C35.8353524,158.204737 35.3371929,157.004196 34.340859,156.24755 C33.3445251,155.490904 32.0233195,155.318703 30.3772026,155.730941 C28.7527452,156.137754 27.4423692,156.968984 26.4460352,158.224654 C25.4497013,159.480324 24.9515418,160.930374 24.9515418,162.574848 L24.9515418,170.883724 C24.9515418,172.528198 25.4497013,173.72333 26.4460352,174.469157 C27.4423692,175.214984 28.7527452,175.384488 30.3772026,174.977674 Z M46.9140969,172.55653 C46.6325243,172.627045 46.4917401,172.521658 46.4917401,172.240366 L46.4917401,150.364652 C46.4917401,150.083361 46.6325243,149.90746 46.9140969,149.836946 L48.3761013,149.470816 C48.5710362,149.421998 48.7334795,149.478686 48.8634361,149.640881 L59.7797357,164.563471 C59.8230545,164.617536 59.8663728,164.633734 59.9096916,164.612067 C59.9530105,164.5904 59.9746696,164.536291 59.9746696,164.44974 L59.9746696,146.988117 C59.9746696,146.706825 60.1154538,146.530925 60.3970264,146.460411 L61.8590308,146.09428 C62.1406035,146.023766 62.2813877,146.129153 62.2813877,146.410444 L62.2813877,168.286159 C62.2813877,168.56745 62.1406035,168.74335 61.8590308,168.813865 L60.3970264,169.179995 C60.2020915,169.228813 60.0396482,169.172125 59.9096916,169.00993 L48.9609031,154.030563 C48.9175842,153.976498 48.874266,153.960299 48.8309471,153.981967 C48.7876283,154.003634 48.7659692,154.057742 48.7659692,154.144294 L48.7984581,171.662694 C48.7984581,171.943985 48.6576739,172.119886 48.3761013,172.1904 L46.9140969,172.55653 Z M85.5110132,141.761476 C85.5110132,142.042767 85.370229,142.218668 85.0886564,142.289182 L73.2951542,145.242633 C73.186857,145.269754 73.1327093,145.337408 73.1327093,145.445597 L73.1327093,153.397452 C73.1327093,153.505641 73.186857,153.546174 73.2951542,153.519054 L81.5148678,151.460587 C81.7964405,151.390073 81.9372247,151.49546 81.9372247,151.776752 L81.9372247,152.945187 C81.9372247,153.226479 81.7964405,153.402379 81.5148678,153.472893 L73.2951542,155.53136 C73.186857,155.55848 73.1327093,155.626134 73.1327093,155.734323 L73.1327093,165.568658 C73.1327093,165.849949 72.991925,166.02585 72.7103524,166.096364 L71.248348,166.462494 C70.9667754,166.533009 70.8259912,166.427622 70.8259912,166.14633 L70.8259912,144.270616 C70.8259912,143.989325 70.9667754,143.813424 71.248348,143.74291 L85.0886564,140.276876 C85.370229,140.206362 85.5110132,140.311749 85.5110132,140.59304 L85.5110132,141.761476 Z" id="FRONT-END-DESIGN-CON-Copy" fill="#FFFFFF"></path>
                    <path d="M15.3997797,24.083838 C15.3997797,24.3651295 15.2589955,24.5410298 14.9774229,24.6115442 L3.1839207,27.5649956 C3.07562354,27.5921165 3.02147577,27.6597704 3.02147577,27.7679595 L3.02147577,35.719814 C3.02147577,35.8280031 3.07562354,35.8685365 3.1839207,35.8414156 L11.4036344,33.7829495 C11.685207,33.7124351 11.8259912,33.8178221 11.8259912,34.0991136 L11.8259912,35.2675494 C11.8259912,35.5488409 11.685207,35.7247412 11.4036344,35.7952555 L3.1839207,37.8537217 C3.07562354,37.8808426 3.02147577,37.9484965 3.02147577,38.0566856 L3.02147577,47.89102 C3.02147577,48.1723115 2.88069157,48.3482118 2.59911894,48.4187261 L1.13711454,48.7848564 C0.85554191,48.8553708 0.714757709,48.7499838 0.714757709,48.4686923 L0.714757709,26.5929781 C0.714757709,26.3116866 0.85554191,26.1357863 1.13711454,26.065272 L14.9774229,22.5992381 C15.2589955,22.5287238 15.3997797,22.6341108 15.3997797,22.9154023 L15.3997797,24.083838 Z M15.4322687,69.1542424 C15.4322687,69.4355339 15.2914845,69.6114342 15.0099119,69.6819485 L3.1839207,72.6435361 C3.07562354,72.670657 3.02147577,72.738311 3.02147577,72.8465 L3.02147577,80.7983546 C3.02147577,80.9065436 3.07562354,80.9470771 3.1839207,80.9199562 L11.4361233,78.8533538 C11.717696,78.7828395 11.8584802,78.8882265 11.8584802,79.169518 L11.8584802,80.3379538 C11.8584802,80.6192453 11.717696,80.7951455 11.4361233,80.8656599 L3.1839207,82.9322623 C3.07562354,82.9593832 3.02147577,83.0270371 3.02147577,83.1352261 L3.02147577,91.2169069 C3.02147577,91.3250959 3.07562354,91.3656294 3.1839207,91.3385085 L15.0099119,88.3769209 C15.2914845,88.3064065 15.4322687,88.4117935 15.4322687,88.693085 L15.4322687,89.8615208 C15.4322687,90.1428123 15.2914845,90.3187126 15.0099119,90.3892269 L1.13711454,93.863397 C0.85554191,93.9339114 0.714757709,93.8285244 0.714757709,93.5472329 L0.714757709,71.6715187 C0.714757709,71.3902272 0.85554191,71.2143269 1.13711454,71.1438126 L15.0099119,67.6696425 C15.2914845,67.5991281 15.4322687,67.7045151 15.4322687,67.9858066 L15.4322687,69.1542424 Z M1.13711454,138.941938 C0.85554191,139.012452 0.714757709,138.907065 0.714757709,138.625773 L0.714757709,116.750059 C0.714757709,116.468768 0.85554191,116.292867 1.13711454,116.222353 L8.70704845,114.326612 C10.8513323,113.789618 12.5569871,113.925045 13.8240639,114.732896 C15.0911407,115.540747 15.7246696,116.907535 15.7246696,118.8333 L15.7246696,129.024656 C15.7246696,130.950421 15.0911407,132.634519 13.8240639,134.076999 C12.5569871,135.51948 10.8513323,136.509202 8.70704845,137.046196 L1.13711454,138.941938 Z M3.02147577,136.295447 C3.02147577,136.403637 3.07562354,136.44417 3.1839207,136.417049 L8.80451542,135.009481 C10.2123785,134.65691 11.3332374,133.9651 12.1671255,132.934033 C13.0010137,131.902965 13.4179515,130.69504 13.4179515,129.31022 L13.4179515,119.735538 C13.4179515,118.32908 13.0064285,117.317808 12.18337,116.70169 C11.3603116,116.085572 10.234038,115.956513 8.80451542,116.314509 L3.1839207,117.722077 C3.07562354,117.749198 3.02147577,117.816852 3.02147577,117.925041 L3.02147577,136.295447 Z M7.63491189,182.685341 C6.11875159,183.065034 4.78671646,183.1011 3.63876652,182.793542 C2.49081658,182.485984 1.59737838,181.865866 0.95842511,180.93317 C0.319471842,180.000474 0,178.820097 0,177.392001 L0,168.46645 C0,167.059993 0.319471842,165.735832 0.95842511,164.493928 C1.59737838,163.252025 2.49081658,162.189828 3.63876652,161.307307 C4.78671646,160.424785 6.11875159,159.793688 7.63491189,159.413995 C9.15107219,159.034303 10.4831073,158.992827 11.6310573,159.289566 C12.7790072,159.586305 13.6724454,160.184785 14.3113987,161.085025 C14.9503519,161.985264 15.2698238,163.127776 15.2698238,164.512596 C15.2698238,164.707336 15.1290396,164.861599 14.847467,164.975389 L13.3854626,165.438889 L13.2879956,165.463298 C13.2013579,165.484994 13.125551,165.482341 13.0605727,165.455338 C12.9955944,165.428335 12.9631057,165.393196 12.9631057,165.349921 L12.9631057,165.155181 C12.9631057,163.618897 12.4757758,162.513012 11.5011013,161.837493 C10.5264268,161.161975 9.23770992,161.024912 7.63491189,161.426301 C6.03211386,161.827691 4.74339694,162.615631 3.76872247,163.790144 C2.79404799,164.964658 2.30671806,166.309218 2.30671806,167.823865 L2.30671806,176.911699 C2.30671806,178.426345 2.79404799,179.526821 3.76872247,180.213158 C4.74339694,180.899496 6.03211386,181.041968 7.63491189,180.640579 C9.23770992,180.239189 10.5264268,179.456659 11.5011013,178.292964 C12.4757758,177.129269 12.9631057,175.7793 12.9631057,174.243015 C12.9631057,173.983362 13.1038899,173.829099 13.3854626,173.780222 L14.847467,173.479005 C15.1290396,173.408491 15.2698238,173.427328 15.2698238,173.535517 L15.2698238,173.697799 C15.2698238,175.104257 14.9503519,176.423008 14.3113987,177.654093 C13.6724454,178.885178 12.7790072,179.936556 11.6310573,180.808258 C10.4831073,181.67996 9.15107219,182.305649 7.63491189,182.685341 Z" id="Combined-Shape" fill="#02F694"></path>
                </g>
            </g>
        </g>
    </g>
</svg>