<?xml version="1.0" encoding="UTF-8"?>
<svg width="36px" height="36px" viewBox="0 0 36 36" version="1.1" xmlns="http://www.w3.org/2000/svg" xmlns:xlink="http://www.w3.org/1999/xlink">
    <!-- Generator: Sketch 49.3 (51167) - http://www.bohemiancoding.com/sketch -->
    <title>icon_fb</title>
    <desc>Created with Sketch.</desc>
    <defs></defs>
    <g id="web" stroke="none" stroke-width="1" fill="none" fill-rule="evenodd">
        <g id="fedc_web_menu" transform="translate(-702.000000, -898.000000)" fill="#C2B9EE" fill-rule="nonzero">
            <path d="M720,898 C710.074841,898 702,906.074841 702,916 C702,925.924434 710.074841,934 720,934 C729.924434,934 738,925.924434 738,916 C738,906.074841 729.925884,898 720,898 Z M724.476436,916.63369 L721.547974,916.63369 C721.547974,921.312414 721.547974,927.071457 721.547974,927.071457 L717.208572,927.071457 C717.208572,927.071457 717.208572,921.368243 717.208572,916.63369 L715.145815,916.63369 L715.145815,912.944655 L717.208572,912.944655 L717.208572,910.558527 C717.208572,908.849593 718.020624,906.179248 721.587851,906.179248 L724.803432,906.191573 L724.803432,909.772577 C724.803432,909.772577 722.849432,909.772577 722.469508,909.772577 C722.089584,909.772577 721.549424,909.962539 721.549424,910.777491 L721.549424,912.94538 L724.855635,912.94538 L724.476436,916.63369 Z" id="icon_fb"></path>
        </g>
    </g>
</svg>