<?xml version="1.0" encoding="UTF-8"?>
<svg width="120px" height="63px" viewBox="0 0 120 63" version="1.1" xmlns="http://www.w3.org/2000/svg" xmlns:xlink="http://www.w3.org/1999/xlink">
    <!-- Generator: Sketch 49.3 (51167) - http://www.bohemiancoding.com/sketch -->
    <title>logo_index</title>
    <desc>Created with Sketch.</desc>
    <defs></defs>
    <g id="web" stroke="none" stroke-width="1" fill="none" fill-rule="evenodd">
        <g id="fedc_web_about" transform="translate(-660.000000, -336.000000)" fill="#02F694">
            <path d="M774.034998,377.150589 L762.545857,380.258721 C761.883467,380.437744 761.458223,380.353946 761.294916,380.227161 C761.142928,380.109627 761.048609,379.779333 761.048609,379.364698 L761.048609,362.981709 C761.048609,357.930994 764.470505,351.377363 769.381026,350.049116 L776.487294,348.126667 C779.014507,347.443226 780.51445,344.820467 779.837508,342.268447 C779.160028,339.716971 776.561133,338.202628 774.034998,338.886613 L766.92873,340.809062 C757.317346,343.408966 751.573584,354.12473 751.573584,362.981709 L751.573584,379.364698 C751.573584,382.78952 753.014779,385.870445 755.526901,387.816292 C757.317346,389.203851 759.527646,389.923749 761.861909,389.923749 C762.891334,389.923749 763.945552,389.783361 764.998153,389.498775 L776.487294,386.390643 C779.014507,385.707203 780.51445,383.084444 779.837508,380.532968 C779.160028,377.980948 776.56275,376.467149 774.034998,377.150589 Z M728.718185,390.201261 C726.112823,390.982647 723.258997,391.127388 721.885711,388.961708 C721.595208,388.503542 721.395791,387.803233 721.348362,387.210663 L721.348362,369.620226 C721.348362,367.568815 723.001371,365.90048 725.033273,365.90048 C727.065176,365.90048 728.718185,367.568815 728.718185,369.620226 L728.718185,390.201261 Z M744.767519,351.489456 C742.186949,349.490283 738.734871,348.877037 735.296267,349.807517 L723.807125,352.915649 C721.279913,353.59909 719.77997,356.221848 720.456912,358.773324 C721.134392,361.3248 723.732209,362.8386 726.259421,362.155703 L737.749102,359.047571 C738.410413,358.868549 738.836197,358.951802 738.999503,359.078587 C739.151492,359.196122 739.245811,359.526959 739.245811,359.941594 L739.245811,376.32404 C739.245811,380.804495 736.832859,386.157207 732.859062,388.415935 C732.071093,388.863763 730.976992,389.403006 729.770786,389.848114 L729.770786,369.620226 C729.770786,366.978967 727.649954,364.837229 725.033273,364.837229 C722.416593,364.837229 720.295761,366.978967 720.295761,369.620226 L720.295761,388.389272 C720.295761,388.389272 720.289832,401.72072 733.36569,398.497231 C743.032048,396.113894 748.720836,385.181563 748.720836,376.32404 L748.720836,359.941594 C748.720836,356.516228 747.280179,353.435848 744.767519,351.489456 Z M703.626077,348.581024 L715.36961,345.40433 C717.896822,344.720346 719.396765,342.097587 718.719285,339.546111 C718.042343,336.994635 715.445065,335.480292 712.917314,336.164277 L701.173781,339.34097 C695.163769,340.966863 690.4559,347.161361 690.4559,353.442922 L690.4559,358.625318 C690.460211,358.624774 690.463984,358.625862 690.468296,358.625318 C690.507101,359.02907 690.682265,359.976419 691.493948,360.607079 C692.29054,361.225767 693.433688,361.340036 694.889435,360.946078 L712.17408,356.331221 C714.373062,355.735931 716.640492,357.058737 717.229582,359.277743 C717.514695,360.352965 717.368636,361.476071 716.817273,362.440289 C716.265911,363.403962 715.375539,364.093388 714.311081,364.381783 L696.714914,369.080982 C696.653471,369.095674 690.719993,370.576825 690.467757,376.404028 C690.463445,376.405117 690.460211,376.407837 690.4559,376.408381 L690.4559,376.642362 C690.4559,376.669025 690.457516,376.695144 690.458055,376.721807 C690.457516,376.743572 690.4559,376.764794 690.4559,376.787103 L690.459672,376.787103 C690.499556,380.202131 691.938057,383.256393 694.425924,385.183739 C696.183493,386.545179 698.34313,387.252018 700.615412,387.252018 C701.605492,387.252018 702.617132,387.11816 703.626077,386.845001 L715.36961,383.668307 C717.896822,382.984322 719.396765,380.362108 718.719285,377.810088 C718.042343,375.258612 715.445065,373.744268 712.917314,374.428253 L701.173781,377.604947 C700.678471,377.738806 700.324909,377.696363 700.19394,377.594608 C700.062971,377.493398 699.930925,377.159296 699.930925,376.642362 L699.930925,369.314419 L714.581642,365.402047 C715.916661,365.041281 717.032321,364.176642 717.723275,362.968105 C718.41423,361.760113 718.598017,360.351877 718.240144,359.004584 C717.50176,356.222937 714.660331,354.56494 711.90298,355.310957 L699.930925,358.507239 L699.930925,353.442922 C699.930925,351.457352 701.72676,349.094693 703.626077,348.581024 Z M673.171255,357.108254 L684.914789,353.93156 C687.442001,353.247575 688.941944,350.625361 688.265002,348.073341 C687.587522,345.521865 684.989705,344.007521 682.462493,344.691506 L670.718959,347.8682 C664.708947,349.494092 660.001078,355.688046 660.001078,361.970151 L660.001078,366.955024 L660,366.955024 C660,366.957745 660.001078,366.976246 660.001078,366.984408 L660.001078,367.050249 C660.002156,367.050249 660.003234,367.050793 660.004312,367.050793 C660.022637,367.37238 660.151449,368.44597 661.038049,369.134308 C661.83518,369.752996 662.977788,369.867266 664.433536,369.473308 L681.718719,364.85845 C683.917701,364.26316 686.185132,365.585966 686.773683,367.804972 C687.059335,368.880194 686.912736,370.003301 686.361374,370.967518 C685.810011,371.931191 684.920178,372.620618 683.855181,372.909012 L666.259014,377.608212 C666.197572,377.622904 660.226905,379.113849 660.01024,384.988393 C660.007007,384.988937 660.004312,384.991113 660.001078,384.991658 L660.001078,385.286038 C660.001078,385.295832 660,385.304538 660,385.314333 L660.001078,385.314333 L660.001078,391.494683 C660.001078,394.135943 662.12191,396.277681 664.73859,396.277681 C667.355271,396.277681 669.476103,394.135943 669.476103,391.494683 L669.476103,377.841648 L684.126281,373.929276 C685.460761,373.568511 686.57696,372.703871 687.267915,371.495335 C687.958869,370.287342 688.142657,368.879106 687.784244,367.531814 C687.0464,364.750166 684.204431,363.092169 681.447619,363.838186 L669.476103,367.034469 L669.476103,361.970151 C669.476103,359.984582 671.271938,357.621922 673.171255,357.108254 Z" id="logo_index"></path>
        </g>
    </g>
</svg>