<?xml version="1.0" encoding="UTF-8"?>
<svg width="203px" height="63px" viewBox="0 0 203 63" version="1.1" xmlns="http://www.w3.org/2000/svg" xmlns:xlink="http://www.w3.org/1999/xlink">
    <!-- Generator: Sketch 48.2 (47327) - http://www.bohemiancoding.com/sketch -->
    <title>btn_ticket_h</title>
    <desc>Created with Sketch.</desc>
    <defs></defs>
    <g id="web" stroke="none" stroke-width="1" fill="none" fill-rule="evenodd">
        <g id="btn_ticket_h" fill="#02F694">
            <path d="M3,41.8936667 L3,56.5 C3,58.4329966 4.56700338,60 6.5,60 L196.5,60 C198.432997,60 200,58.4329966 200,56.5 L200,6.5 C200,4.56700338 198.432997,3 196.5,3 L6.5,3 C4.56700338,3 3,4.56700338 3,6.5 L3,21.1063333 C8.08844121,21.8341778 12,26.2102921 12,31.5 C12,36.7897079 8.08844121,41.1658222 3,41.8936667 Z M1.5,39 C5.64213562,39 9,35.6421356 9,31.5 C9,27.3578644 5.64213562,24 1.5,24 C0.671572875,24 0,23.3284271 0,22.5 L0,6.5 C0,2.91014913 2.91014913,0 6.5,0 L196.5,0 C200.089851,0 203,2.91014913 203,6.5 L203,56.5 C203,60.0898509 200.089851,63 196.5,63 L6.5,63 C2.91014913,63 0,60.0898509 0,56.5 L0,40.5 C0,39.6715729 0.671572875,39 1.5,39 Z M30,0.5 L30,0.5 C30.8284271,0.5 31.5,1.17157288 31.5,2 L31.5,6 C31.5,6.82842712 30.8284271,7.5 30,7.5 L30,7.5 C29.1715729,7.5 28.5,6.82842712 28.5,6 L28.5,2 C28.5,1.17157288 29.1715729,0.5 30,0.5 Z M30,11.5 L30,11.5 C30.8284271,11.5 31.5,12.1715729 31.5,13 L31.5,17 C31.5,17.8284271 30.8284271,18.5 30,18.5 L30,18.5 C29.1715729,18.5 28.5,17.8284271 28.5,17 L28.5,13 C28.5,12.1715729 29.1715729,11.5 30,11.5 Z M30,22.5 L30,22.5 C30.8284271,22.5 31.5,23.1715729 31.5,24 L31.5,28 C31.5,28.8284271 30.8284271,29.5 30,29.5 L30,29.5 C29.1715729,29.5 28.5,28.8284271 28.5,28 L28.5,24 C28.5,23.1715729 29.1715729,22.5 30,22.5 Z M30,33.5 L30,33.5 C30.8284271,33.5 31.5,34.1715729 31.5,35 L31.5,39 C31.5,39.8284271 30.8284271,40.5 30,40.5 L30,40.5 C29.1715729,40.5 28.5,39.8284271 28.5,39 L28.5,35 C28.5,34.1715729 29.1715729,33.5 30,33.5 Z M30,44.5 L30,44.5 C30.8284271,44.5 31.5,45.1715729 31.5,46 L31.5,50 C31.5,50.8284271 30.8284271,51.5 30,51.5 L30,51.5 C29.1715729,51.5 28.5,50.8284271 28.5,50 L28.5,46 C28.5,45.1715729 29.1715729,44.5 30,44.5 Z M30,55.5 C30.8284271,55.5 31.5,56.1715729 31.5,57 L31.5,61 C31.5,61.8284271 30.8284271,62.5 30,62.5 C29.1715729,62.5 28.5,61.8284271 28.5,61 L28.5,57 C28.5,56.1715729 29.1715729,55.5 30,55.5 Z M68.38,30.24 C68.2839995,30.2880002 68.2759996,30.3359998 68.356,30.384 C70.0360084,31.1360038 70.876,32.4719904 70.876,34.392 C70.876,35.8640074 70.3880049,36.999996 69.412,37.8 C68.4359951,38.600004 67.1640078,39 65.596,39 L59.74,39 C59.6279994,39 59.5400003,38.9680003 59.476,38.904 C59.4119997,38.8399997 59.38,38.7520006 59.38,38.64 L59.38,22.56 C59.38,22.4479994 59.4119997,22.3600003 59.476,22.296 C59.5400003,22.2319997 59.6279994,22.2 59.74,22.2 L65.404,22.2 C67.0680083,22.2 68.3599954,22.5799962 69.28,23.34 C70.2000046,24.1000038 70.66,25.2079927 70.66,26.664 C70.66,28.3760086 69.9000076,29.5679966 68.38,30.24 Z M61.804,24.192 C61.7239996,24.192 61.684,24.2319996 61.684,24.312 L61.684,29.328 C61.684,29.4080004 61.7239996,29.448 61.804,29.448 L65.404,29.448 C66.3320046,29.448 67.0639973,29.2160023 67.6,28.752 C68.1360027,28.2879977 68.404,27.656004 68.404,26.856 C68.404,26.0399959 68.1360027,25.3920024 67.6,24.912 C67.0639973,24.4319976 66.3320046,24.192 65.404,24.192 L61.804,24.192 Z M65.596,36.984 C66.5080046,36.984 67.2319973,36.7320025 67.768,36.228 C68.3040027,35.7239975 68.572,35.0400043 68.572,34.176 C68.572,33.3119957 68.3000027,32.6280025 67.756,32.124 C67.2119973,31.6199975 66.4680047,31.368 65.524,31.368 L61.804,31.368 C61.7239996,31.368 61.684,31.4079996 61.684,31.488 L61.684,36.864 C61.684,36.9440004 61.7239996,36.984 61.804,36.984 L65.596,36.984 Z M81.576,27.144 C81.576,27.0319994 81.6079997,26.9440003 81.672,26.88 C81.7360003,26.8159997 81.8239994,26.784 81.936,26.784 L83.496,26.784 C83.6080006,26.784 83.6959997,26.8159997 83.76,26.88 C83.8240003,26.9440003 83.856,27.0319994 83.856,27.144 L83.856,38.64 C83.856,38.7520006 83.8240003,38.8399997 83.76,38.904 C83.6959997,38.9680003 83.6080006,39 83.496,39 L81.936,39 C81.8239994,39 81.7360003,38.9680003 81.672,38.904 C81.6079997,38.8399997 81.576,38.7520006 81.576,38.64 L81.576,37.92 C81.576,37.8719998 81.5600002,37.844 81.528,37.836 C81.4959998,37.828 81.4640002,37.8399998 81.432,37.872 C80.7919968,38.7360043 79.8160066,39.168 78.504,39.168 C77.7199961,39.168 76.9960033,39.0160015 76.332,38.712 C75.6679967,38.4079985 75.136002,37.960003 74.736,37.368 C74.335998,36.775997 74.136,36.0560042 74.136,35.208 L74.136,27.144 C74.136,27.0319994 74.1679997,26.9440003 74.232,26.88 C74.2960003,26.8159997 74.3839994,26.784 74.496,26.784 L76.056,26.784 C76.1680006,26.784 76.2559997,26.8159997 76.32,26.88 C76.3840003,26.9440003 76.416,27.0319994 76.416,27.144 L76.416,34.488 C76.416,35.3200042 76.6359978,35.9759976 77.076,36.456 C77.5160022,36.9360024 78.135996,37.176 78.936,37.176 C79.736004,37.176 80.3759976,36.9320024 80.856,36.444 C81.3360024,35.9559976 81.576,35.3040041 81.576,34.488 L81.576,27.144 Z M87.356,43.8 C87.3079998,43.8 87.2680002,43.7680003 87.236,43.704 C87.2039998,43.6399997 87.188,43.5520006 87.188,43.44 L87.188,42.216 C87.188,41.9759988 87.2359995,41.856 87.332,41.856 L87.476,41.856 C88.1160032,41.856 88.6159982,41.7840007 88.976,41.64 C89.3360018,41.4959993 89.6399988,41.228002 89.888,40.836 C90.1360012,40.443998 90.3719989,39.8560039 90.596,39.072 C90.6120001,39.0399998 90.6120001,38.9920003 90.596,38.928 L86.636,27.192 C86.6199999,27.1599998 86.612,27.1120003 86.612,27.048 C86.612,26.8719991 86.715999,26.784 86.924,26.784 L88.604,26.784 C88.812001,26.784 88.9479997,26.879999 89.012,27.072 L91.724,35.712 C91.7400001,35.7760003 91.7639998,35.808 91.796,35.808 C91.8280002,35.808 91.8519999,35.7760003 91.868,35.712 L94.484,27.096 C94.5000001,26.9999995 94.5479996,26.9240003 94.628,26.868 C94.7080004,26.8119997 94.7959995,26.784 94.892,26.784 L96.572,26.784 C96.7000006,26.784 96.7879998,26.8199996 96.836,26.892 C96.8840002,26.9640004 96.8920002,27.0639994 96.86,27.192 L92.564,39.84 C92.1959982,40.9440055 91.8280018,41.7679973 91.46,42.312 C91.0919982,42.8560027 90.612003,43.2399989 90.02,43.464 C89.427997,43.6880011 88.5960054,43.8 87.524,43.8 L87.356,43.8 Z M115.788,22.2 C115.900001,22.2 115.988,22.2319997 116.052,22.296 C116.116,22.3600003 116.148,22.4479994 116.148,22.56 L116.148,23.856 C116.148,23.9680006 116.116,24.0559997 116.052,24.12 C115.988,24.1840003 115.900001,24.216 115.788,24.216 L111.324,24.216 C111.244,24.216 111.204,24.2559996 111.204,24.336 L111.204,38.64 C111.204,38.7520006 111.172,38.8399997 111.108,38.904 C111.044,38.9680003 110.956001,39 110.844,39 L109.26,39 C109.147999,39 109.06,38.9680003 108.996,38.904 C108.932,38.8399997 108.9,38.7520006 108.9,38.64 L108.9,24.336 C108.9,24.2559996 108.86,24.216 108.78,24.216 L104.532,24.216 C104.419999,24.216 104.332,24.1840003 104.268,24.12 C104.204,24.0559997 104.172,23.9680006 104.172,23.856 L104.172,22.56 C104.172,22.4479994 104.204,22.3600003 104.268,22.296 C104.332,22.2319997 104.419999,22.2 104.532,22.2 L115.788,22.2 Z M120.296,24.96 C119.831998,24.96 119.452001,24.8200014 119.156,24.54 C118.859999,24.2599986 118.712,23.8960022 118.712,23.448 C118.712,22.9999978 118.859999,22.6360014 119.156,22.356 C119.452001,22.0759986 119.831998,21.936 120.296,21.936 C120.760002,21.936 121.135999,22.0759986 121.424,22.356 C121.712001,22.6360014 121.856,22.9999978 121.856,23.448 C121.856,23.8960022 121.712001,24.2599986 121.424,24.54 C121.135999,24.8200014 120.760002,24.96 120.296,24.96 Z M119.504,39 C119.391999,39 119.304,38.9680003 119.24,38.904 C119.176,38.8399997 119.144,38.7520006 119.144,38.64 L119.144,27.144 C119.144,27.0319994 119.176,26.9440003 119.24,26.88 C119.304,26.8159997 119.391999,26.784 119.504,26.784 L121.088,26.784 C121.200001,26.784 121.288,26.8159997 121.352,26.88 C121.416,26.9440003 121.448,27.0319994 121.448,27.144 L121.448,38.64 C121.448,38.7520006 121.416,38.8399997 121.352,38.904 C121.288,38.9680003 121.200001,39 121.088,39 L119.504,39 Z M130.372,39.192 C129.155994,39.192 128.116004,38.8840031 127.252,38.268 C126.387996,37.6519969 125.796002,36.8160053 125.476,35.76 C125.235999,35.0239963 125.116,34.056006 125.116,32.856 C125.116,31.7519945 125.235999,30.7840042 125.476,29.952 C125.796002,28.9279949 126.391996,28.112003 127.264,27.504 C128.136004,26.895997 129.171994,26.592 130.372,26.592 C131.572006,26.592 132.619996,26.895997 133.516,27.504 C134.412004,28.112003 134.995999,28.8799954 135.268,29.808 C135.348,30.016001 135.404,30.2399988 135.436,30.48 L135.436,30.528 C135.436,30.720001 135.332001,30.8319998 135.124,30.864 L133.564,31.08 L133.492,31.08 C133.315999,31.08 133.204,30.9920009 133.156,30.816 L133.084,30.504 C132.955999,29.9599973 132.644002,29.5040018 132.148,29.136 C131.651998,28.7679982 131.052004,28.584 130.348,28.584 C129.659997,28.584 129.076002,28.7679982 128.596,29.136 C128.115998,29.5040018 127.804001,29.991997 127.66,30.6 C127.515999,31.1760029 127.444,31.9359953 127.444,32.88 C127.444,33.8080046 127.515999,34.5599971 127.66,35.136 C127.820001,35.7760032 128.135998,36.2799982 128.608,36.648 C129.080002,37.0160018 129.659997,37.2 130.348,37.2 C131.036003,37.2 131.627998,37.0200018 132.124,36.66 C132.620002,36.2999982 132.939999,35.8400028 133.084,35.28 L133.108,35.184 L133.108,35.16 C133.124,35.0799996 133.172,35.0040004 133.252,34.932 C133.332,34.8599996 133.42,34.8319999 133.516,34.848 L135.076,35.112 C135.300001,35.1600002 135.404,35.287999 135.388,35.496 C135.372,35.5600003 135.332,35.7119988 135.268,35.952 C134.995999,36.9280049 134.412004,37.711997 133.516,38.304 C132.619996,38.896003 131.572006,39.192 130.372,39.192 Z M138.96,39 C138.847999,39 138.76,38.9680003 138.696,38.904 C138.632,38.8399997 138.6,38.7520006 138.6,38.64 L138.6,22.56 C138.6,22.4479994 138.632,22.3600003 138.696,22.296 C138.76,22.2319997 138.847999,22.2 138.96,22.2 L140.544,22.2 C140.656001,22.2 140.744,22.2319997 140.808,22.296 C140.872,22.3600003 140.904,22.4479994 140.904,22.56 L140.904,31.632 C140.904,31.6800002 140.92,31.7119999 140.952,31.728 C140.984,31.7440001 141.016,31.7280002 141.048,31.68 L145.416,26.976 C145.528001,26.8479994 145.671999,26.784 145.848,26.784 L147.696,26.784 C147.888001,26.784 147.984,26.8479994 147.984,26.976 C147.984,27.0560004 147.952,27.1359996 147.888,27.216 L144.936,30.648 C144.888,30.6960002 144.88,30.7519997 144.912,30.816 L148.488,38.568 L148.536,38.76 C148.536,38.9200008 148.432001,39 148.224,39 L146.544,39 C146.335999,39 146.2,38.9120009 146.136,38.736 L143.352,32.304 C143.336,32.2719998 143.308,32.252 143.268,32.244 C143.228,32.236 143.2,32.2479998 143.184,32.28 L140.952,34.728 C140.92,34.7920003 140.904,34.8479998 140.904,34.896 L140.904,38.64 C140.904,38.7520006 140.872,38.8399997 140.808,38.904 C140.744,38.9680003 140.656001,39 140.544,39 L138.96,39 Z M155.828,37.224 C157.124006,37.2079999 158.051997,36.704005 158.612,35.712 C158.692,35.5679993 158.78,35.496 158.876,35.496 C158.956,35.496 159.028,35.5199998 159.092,35.568 L160.076,36.168 C160.204001,36.2480004 160.268,36.3519994 160.268,36.48 L160.22,36.672 C159.787998,37.4560039 159.176004,38.0719978 158.384,38.52 C157.591996,38.9680022 156.668005,39.192 155.612,39.192 C154.475994,39.192 153.516004,38.9400025 152.732,38.436 C151.947996,37.9319975 151.356002,37.2080047 150.956,36.264 C150.555998,35.2879951 150.356,34.1440066 150.356,32.832 C150.356,31.6639942 150.443999,30.776003 150.62,30.168 C150.908001,29.0639945 151.483996,28.1920032 152.348,27.552 C153.212004,26.9119968 154.259994,26.592 155.492,26.592 C157.012008,26.592 158.171996,26.987996 158.972,27.78 C159.772004,28.572004 160.291999,29.7199925 160.532,31.224 C160.612,31.816003 160.668,32.5359958 160.7,33.384 C160.7,33.6240012 160.580001,33.744 160.34,33.744 L152.756,33.744 C152.676,33.744 152.636,33.7839996 152.636,33.864 C152.668,34.472003 152.724,34.9039987 152.804,35.16 C152.980001,35.8000032 153.331997,36.3039982 153.86,36.672 C154.388003,37.0400018 155.043996,37.224 155.828,37.224 Z M155.492,28.584 C154.787996,28.584 154.216002,28.7519983 153.776,29.088 C153.335998,29.4240017 153.036001,29.887997 152.876,30.48 C152.763999,30.8320018 152.692,31.2799973 152.66,31.824 C152.66,31.9040004 152.7,31.944 152.78,31.944 L158.228,31.944 C158.308,31.944 158.348,31.9040004 158.348,31.824 C158.316,31.2959974 158.268,30.9040013 158.204,30.648 C158.043999,30.0239969 157.728002,29.5240019 157.256,29.148 C156.783998,28.7719981 156.196004,28.584 155.492,28.584 Z M169.936,28.32 C169.936,28.4320006 169.904,28.5199997 169.84,28.584 C169.776,28.6480003 169.688001,28.68 169.576,28.68 L167.128,28.68 C167.048,28.68 167.008,28.7199996 167.008,28.8 L167.008,35.064 C167.008,35.7520034 167.155999,36.2399986 167.452,36.528 C167.748001,36.8160014 168.223997,36.96 168.88,36.96 L169.456,36.96 C169.568001,36.96 169.656,36.9919997 169.72,37.056 C169.784,37.1200003 169.816,37.2079994 169.816,37.32 L169.816,38.568 C169.816,38.7920011 169.696001,38.9199998 169.456,38.952 L168.472,38.976 C167.239994,38.976 166.320003,38.7600022 165.712,38.328 C165.103997,37.8959978 164.8,37.0880059 164.8,35.904 L164.8,28.8 C164.8,28.7199996 164.76,28.68 164.68,28.68 L163.36,28.68 C163.247999,28.68 163.16,28.6480003 163.096,28.584 C163.032,28.5199997 163,28.4320006 163,28.32 L163,27.144 C163,27.0319994 163.032,26.9440003 163.096,26.88 C163.16,26.8159997 163.247999,26.784 163.36,26.784 L164.68,26.784 C164.76,26.784 164.8,26.7440004 164.8,26.664 L164.8,23.976 C164.8,23.8639994 164.832,23.7760003 164.896,23.712 C164.96,23.6479997 165.047999,23.616 165.16,23.616 L166.648,23.616 C166.760001,23.616 166.848,23.6479997 166.912,23.712 C166.976,23.7760003 167.008,23.8639994 167.008,23.976 L167.008,26.664 C167.008,26.7440004 167.048,26.784 167.128,26.784 L169.576,26.784 C169.688001,26.784 169.776,26.8159997 169.84,26.88 C169.904,26.9440003 169.936,27.0319994 169.936,27.144 L169.936,28.32 Z" id="Combined-Shape-Copy" fill-rule="nonzero"></path>
            <path d="M1,41 C5.97056275,41 10,36.9705627 10,32 C10,27.0294373 5.97056275,23 1,23 L1,7 C1,4.23857625 3.23857625,2 6,2 L196,2 C198.761424,2 201,4.23857625 201,7 L201,57 C201,59.7614237 198.761424,62 196,62 L6,62 C3.23857625,62 1,59.7614237 1,57 L1,41 Z" fill-opacity="0.200000018"></path>
        </g>
    </g>
</svg>