<?xml version="1.0" encoding="UTF-8"?>
<svg width="204px" height="64px" viewBox="0 0 204 64" version="1.1" xmlns="http://www.w3.org/2000/svg" xmlns:xlink="http://www.w3.org/1999/xlink">
    <!-- Generator: Sketch 48.2 (47327) - http://www.bohemiancoding.com/sketch -->
    <title>btn_ticket_p</title>
    <desc>Created with Sketch.</desc>
    <defs></defs>
    <g id="web" stroke="none" stroke-width="1" fill="none" fill-rule="evenodd">
        <g id="btn_ticket_p">
            <path d="M2,39.5 C6.14213562,39.5 9.5,36.1421356 9.5,32 C9.5,27.8578644 6.14213562,24.5 2,24.5 C1.17157288,24.5 0.5,23.8284271 0.5,23 L0.5,7 C0.5,3.41014913 3.41014913,0.5 7,0.5 L197,0.5 C200.589851,0.5 203.5,3.41014913 203.5,7 L203.5,57 C203.5,60.5898509 200.589851,63.5 197,63.5 L7,63.5 C3.41014913,63.5 0.5,60.5898509 0.5,57 L0.5,41 C0.5,40.1715729 1.17157288,39.5 2,39.5 Z M30.5,1 C29.6715729,1 29,1.67157288 29,2.5 L29,6.5 C29,7.32842712 29.6715729,8 30.5,8 C31.3284271,8 32,7.32842712 32,6.5 L32,2.5 C32,1.67157288 31.3284271,1 30.5,1 Z M30.5,12 C29.6715729,12 29,12.6715729 29,13.5 L29,17.5 C29,18.3284271 29.6715729,19 30.5,19 C31.3284271,19 32,18.3284271 32,17.5 L32,13.5 C32,12.6715729 31.3284271,12 30.5,12 Z M30.5,23 C29.6715729,23 29,23.6715729 29,24.5 L29,28.5 C29,29.3284271 29.6715729,30 30.5,30 C31.3284271,30 32,29.3284271 32,28.5 L32,24.5 C32,23.6715729 31.3284271,23 30.5,23 Z M30.5,34 C29.6715729,34 29,34.6715729 29,35.5 L29,39.5 C29,40.3284271 29.6715729,41 30.5,41 C31.3284271,41 32,40.3284271 32,39.5 L32,35.5 C32,34.6715729 31.3284271,34 30.5,34 Z M30.5,45 C29.6715729,45 29,45.6715729 29,46.5 L29,50.5 C29,51.3284271 29.6715729,52 30.5,52 C31.3284271,52 32,51.3284271 32,50.5 L32,46.5 C32,45.6715729 31.3284271,45 30.5,45 Z M30.5,56 C29.6715729,56 29,56.6715729 29,57.5 L29,61.5 C29,62.3284271 29.6715729,63 30.5,63 C31.3284271,63 32,62.3284271 32,61.5 L32,57.5 C32,56.6715729 31.3284271,56 30.5,56 Z" id="Combined-Shape" fill="#02F694" fill-rule="nonzero"></path>
            <path d="M69.38,31.24 C69.2839995,31.2880002 69.2759996,31.3359998 69.356,31.384 C71.0360084,32.1360038 71.876,33.4719904 71.876,35.392 C71.876,36.8640074 71.3880049,37.999996 70.412,38.8 C69.4359951,39.600004 68.1640078,40 66.596,40 L60.74,40 C60.6279994,40 60.5400003,39.9680003 60.476,39.904 C60.4119997,39.8399997 60.38,39.7520006 60.38,39.64 L60.38,23.56 C60.38,23.4479994 60.4119997,23.3600003 60.476,23.296 C60.5400003,23.2319997 60.6279994,23.2 60.74,23.2 L66.404,23.2 C68.0680083,23.2 69.3599954,23.5799962 70.28,24.34 C71.2000046,25.1000038 71.66,26.2079927 71.66,27.664 C71.66,29.3760086 70.9000076,30.5679966 69.38,31.24 Z M62.804,25.192 C62.7239996,25.192 62.684,25.2319996 62.684,25.312 L62.684,30.328 C62.684,30.4080004 62.7239996,30.448 62.804,30.448 L66.404,30.448 C67.3320046,30.448 68.0639973,30.2160023 68.6,29.752 C69.1360027,29.2879977 69.404,28.656004 69.404,27.856 C69.404,27.0399959 69.1360027,26.3920024 68.6,25.912 C68.0639973,25.4319976 67.3320046,25.192 66.404,25.192 L62.804,25.192 Z M66.596,37.984 C67.5080046,37.984 68.2319973,37.7320025 68.768,37.228 C69.3040027,36.7239975 69.572,36.0400043 69.572,35.176 C69.572,34.3119957 69.3000027,33.6280025 68.756,33.124 C68.2119973,32.6199975 67.4680047,32.368 66.524,32.368 L62.804,32.368 C62.7239996,32.368 62.684,32.4079996 62.684,32.488 L62.684,37.864 C62.684,37.9440004 62.7239996,37.984 62.804,37.984 L66.596,37.984 Z M82.576,28.144 C82.576,28.0319994 82.6079997,27.9440003 82.672,27.88 C82.7360003,27.8159997 82.8239994,27.784 82.936,27.784 L84.496,27.784 C84.6080006,27.784 84.6959997,27.8159997 84.76,27.88 C84.8240003,27.9440003 84.856,28.0319994 84.856,28.144 L84.856,39.64 C84.856,39.7520006 84.8240003,39.8399997 84.76,39.904 C84.6959997,39.9680003 84.6080006,40 84.496,40 L82.936,40 C82.8239994,40 82.7360003,39.9680003 82.672,39.904 C82.6079997,39.8399997 82.576,39.7520006 82.576,39.64 L82.576,38.92 C82.576,38.8719998 82.5600002,38.844 82.528,38.836 C82.4959998,38.828 82.4640002,38.8399998 82.432,38.872 C81.7919968,39.7360043 80.8160066,40.168 79.504,40.168 C78.7199961,40.168 77.9960033,40.0160015 77.332,39.712 C76.6679967,39.4079985 76.136002,38.960003 75.736,38.368 C75.335998,37.775997 75.136,37.0560042 75.136,36.208 L75.136,28.144 C75.136,28.0319994 75.1679997,27.9440003 75.232,27.88 C75.2960003,27.8159997 75.3839994,27.784 75.496,27.784 L77.056,27.784 C77.1680006,27.784 77.2559997,27.8159997 77.32,27.88 C77.3840003,27.9440003 77.416,28.0319994 77.416,28.144 L77.416,35.488 C77.416,36.3200042 77.6359978,36.9759976 78.076,37.456 C78.5160022,37.9360024 79.135996,38.176 79.936,38.176 C80.736004,38.176 81.3759976,37.9320024 81.856,37.444 C82.3360024,36.9559976 82.576,36.3040041 82.576,35.488 L82.576,28.144 Z M88.356,44.8 C88.3079998,44.8 88.2680002,44.7680003 88.236,44.704 C88.2039998,44.6399997 88.188,44.5520006 88.188,44.44 L88.188,43.216 C88.188,42.9759988 88.2359995,42.856 88.332,42.856 L88.476,42.856 C89.1160032,42.856 89.6159982,42.7840007 89.976,42.64 C90.3360018,42.4959993 90.6399988,42.228002 90.888,41.836 C91.1360012,41.443998 91.3719989,40.8560039 91.596,40.072 C91.6120001,40.0399998 91.6120001,39.9920003 91.596,39.928 L87.636,28.192 C87.6199999,28.1599998 87.612,28.1120003 87.612,28.048 C87.612,27.8719991 87.715999,27.784 87.924,27.784 L89.604,27.784 C89.812001,27.784 89.9479997,27.879999 90.012,28.072 L92.724,36.712 C92.7400001,36.7760003 92.7639998,36.808 92.796,36.808 C92.8280002,36.808 92.8519999,36.7760003 92.868,36.712 L95.484,28.096 C95.5000001,27.9999995 95.5479996,27.9240003 95.628,27.868 C95.7080004,27.8119997 95.7959995,27.784 95.892,27.784 L97.572,27.784 C97.7000006,27.784 97.7879998,27.8199996 97.836,27.892 C97.8840002,27.9640004 97.8920002,28.0639994 97.86,28.192 L93.564,40.84 C93.1959982,41.9440055 92.8280018,42.7679973 92.46,43.312 C92.0919982,43.8560027 91.612003,44.2399989 91.02,44.464 C90.427997,44.6880011 89.5960054,44.8 88.524,44.8 L88.356,44.8 Z M116.788,23.2 C116.900001,23.2 116.988,23.2319997 117.052,23.296 C117.116,23.3600003 117.148,23.4479994 117.148,23.56 L117.148,24.856 C117.148,24.9680006 117.116,25.0559997 117.052,25.12 C116.988,25.1840003 116.900001,25.216 116.788,25.216 L112.324,25.216 C112.244,25.216 112.204,25.2559996 112.204,25.336 L112.204,39.64 C112.204,39.7520006 112.172,39.8399997 112.108,39.904 C112.044,39.9680003 111.956001,40 111.844,40 L110.26,40 C110.147999,40 110.06,39.9680003 109.996,39.904 C109.932,39.8399997 109.9,39.7520006 109.9,39.64 L109.9,25.336 C109.9,25.2559996 109.86,25.216 109.78,25.216 L105.532,25.216 C105.419999,25.216 105.332,25.1840003 105.268,25.12 C105.204,25.0559997 105.172,24.9680006 105.172,24.856 L105.172,23.56 C105.172,23.4479994 105.204,23.3600003 105.268,23.296 C105.332,23.2319997 105.419999,23.2 105.532,23.2 L116.788,23.2 Z M121.296,25.96 C120.831998,25.96 120.452001,25.8200014 120.156,25.54 C119.859999,25.2599986 119.712,24.8960022 119.712,24.448 C119.712,23.9999978 119.859999,23.6360014 120.156,23.356 C120.452001,23.0759986 120.831998,22.936 121.296,22.936 C121.760002,22.936 122.135999,23.0759986 122.424,23.356 C122.712001,23.6360014 122.856,23.9999978 122.856,24.448 C122.856,24.8960022 122.712001,25.2599986 122.424,25.54 C122.135999,25.8200014 121.760002,25.96 121.296,25.96 Z M120.504,40 C120.391999,40 120.304,39.9680003 120.24,39.904 C120.176,39.8399997 120.144,39.7520006 120.144,39.64 L120.144,28.144 C120.144,28.0319994 120.176,27.9440003 120.24,27.88 C120.304,27.8159997 120.391999,27.784 120.504,27.784 L122.088,27.784 C122.200001,27.784 122.288,27.8159997 122.352,27.88 C122.416,27.9440003 122.448,28.0319994 122.448,28.144 L122.448,39.64 C122.448,39.7520006 122.416,39.8399997 122.352,39.904 C122.288,39.9680003 122.200001,40 122.088,40 L120.504,40 Z M131.372,40.192 C130.155994,40.192 129.116004,39.8840031 128.252,39.268 C127.387996,38.6519969 126.796002,37.8160053 126.476,36.76 C126.235999,36.0239963 126.116,35.056006 126.116,33.856 C126.116,32.7519945 126.235999,31.7840042 126.476,30.952 C126.796002,29.9279949 127.391996,29.112003 128.264,28.504 C129.136004,27.895997 130.171994,27.592 131.372,27.592 C132.572006,27.592 133.619996,27.895997 134.516,28.504 C135.412004,29.112003 135.995999,29.8799954 136.268,30.808 C136.348,31.016001 136.404,31.2399988 136.436,31.48 L136.436,31.528 C136.436,31.720001 136.332001,31.8319998 136.124,31.864 L134.564,32.08 L134.492,32.08 C134.315999,32.08 134.204,31.9920009 134.156,31.816 L134.084,31.504 C133.955999,30.9599973 133.644002,30.5040018 133.148,30.136 C132.651998,29.7679982 132.052004,29.584 131.348,29.584 C130.659997,29.584 130.076002,29.7679982 129.596,30.136 C129.115998,30.5040018 128.804001,30.991997 128.66,31.6 C128.515999,32.1760029 128.444,32.9359953 128.444,33.88 C128.444,34.8080046 128.515999,35.5599971 128.66,36.136 C128.820001,36.7760032 129.135998,37.2799982 129.608,37.648 C130.080002,38.0160018 130.659997,38.2 131.348,38.2 C132.036003,38.2 132.627998,38.0200018 133.124,37.66 C133.620002,37.2999982 133.939999,36.8400028 134.084,36.28 L134.108,36.184 L134.108,36.16 C134.124,36.0799996 134.172,36.0040004 134.252,35.932 C134.332,35.8599996 134.42,35.8319999 134.516,35.848 L136.076,36.112 C136.300001,36.1600002 136.404,36.287999 136.388,36.496 C136.372,36.5600003 136.332,36.7119988 136.268,36.952 C135.995999,37.9280049 135.412004,38.711997 134.516,39.304 C133.619996,39.896003 132.572006,40.192 131.372,40.192 Z M139.96,40 C139.847999,40 139.76,39.9680003 139.696,39.904 C139.632,39.8399997 139.6,39.7520006 139.6,39.64 L139.6,23.56 C139.6,23.4479994 139.632,23.3600003 139.696,23.296 C139.76,23.2319997 139.847999,23.2 139.96,23.2 L141.544,23.2 C141.656001,23.2 141.744,23.2319997 141.808,23.296 C141.872,23.3600003 141.904,23.4479994 141.904,23.56 L141.904,32.632 C141.904,32.6800002 141.92,32.7119999 141.952,32.728 C141.984,32.7440001 142.016,32.7280002 142.048,32.68 L146.416,27.976 C146.528001,27.8479994 146.671999,27.784 146.848,27.784 L148.696,27.784 C148.888001,27.784 148.984,27.8479994 148.984,27.976 C148.984,28.0560004 148.952,28.1359996 148.888,28.216 L145.936,31.648 C145.888,31.6960002 145.88,31.7519997 145.912,31.816 L149.488,39.568 L149.536,39.76 C149.536,39.9200008 149.432001,40 149.224,40 L147.544,40 C147.335999,40 147.2,39.9120009 147.136,39.736 L144.352,33.304 C144.336,33.2719998 144.308,33.252 144.268,33.244 C144.228,33.236 144.2,33.2479998 144.184,33.28 L141.952,35.728 C141.92,35.7920003 141.904,35.8479998 141.904,35.896 L141.904,39.64 C141.904,39.7520006 141.872,39.8399997 141.808,39.904 C141.744,39.9680003 141.656001,40 141.544,40 L139.96,40 Z M156.828,38.224 C158.124006,38.2079999 159.051997,37.704005 159.612,36.712 C159.692,36.5679993 159.78,36.496 159.876,36.496 C159.956,36.496 160.028,36.5199998 160.092,36.568 L161.076,37.168 C161.204001,37.2480004 161.268,37.3519994 161.268,37.48 L161.22,37.672 C160.787998,38.4560039 160.176004,39.0719978 159.384,39.52 C158.591996,39.9680022 157.668005,40.192 156.612,40.192 C155.475994,40.192 154.516004,39.9400025 153.732,39.436 C152.947996,38.9319975 152.356002,38.2080047 151.956,37.264 C151.555998,36.2879951 151.356,35.1440066 151.356,33.832 C151.356,32.6639942 151.443999,31.776003 151.62,31.168 C151.908001,30.0639945 152.483996,29.1920032 153.348,28.552 C154.212004,27.9119968 155.259994,27.592 156.492,27.592 C158.012008,27.592 159.171996,27.987996 159.972,28.78 C160.772004,29.572004 161.291999,30.7199925 161.532,32.224 C161.612,32.816003 161.668,33.5359958 161.7,34.384 C161.7,34.6240012 161.580001,34.744 161.34,34.744 L153.756,34.744 C153.676,34.744 153.636,34.7839996 153.636,34.864 C153.668,35.472003 153.724,35.9039987 153.804,36.16 C153.980001,36.8000032 154.331997,37.3039982 154.86,37.672 C155.388003,38.0400018 156.043996,38.224 156.828,38.224 Z M156.492,29.584 C155.787996,29.584 155.216002,29.7519983 154.776,30.088 C154.335998,30.4240017 154.036001,30.887997 153.876,31.48 C153.763999,31.8320018 153.692,32.2799973 153.66,32.824 C153.66,32.9040004 153.7,32.944 153.78,32.944 L159.228,32.944 C159.308,32.944 159.348,32.9040004 159.348,32.824 C159.316,32.2959974 159.268,31.9040013 159.204,31.648 C159.043999,31.0239969 158.728002,30.5240019 158.256,30.148 C157.783998,29.7719981 157.196004,29.584 156.492,29.584 Z M170.936,29.32 C170.936,29.4320006 170.904,29.5199997 170.84,29.584 C170.776,29.6480003 170.688001,29.68 170.576,29.68 L168.128,29.68 C168.048,29.68 168.008,29.7199996 168.008,29.8 L168.008,36.064 C168.008,36.7520034 168.155999,37.2399986 168.452,37.528 C168.748001,37.8160014 169.223997,37.96 169.88,37.96 L170.456,37.96 C170.568001,37.96 170.656,37.9919997 170.72,38.056 C170.784,38.1200003 170.816,38.2079994 170.816,38.32 L170.816,39.568 C170.816,39.7920011 170.696001,39.9199998 170.456,39.952 L169.472,39.976 C168.239994,39.976 167.320003,39.7600022 166.712,39.328 C166.103997,38.8959978 165.8,38.0880059 165.8,36.904 L165.8,29.8 C165.8,29.7199996 165.76,29.68 165.68,29.68 L164.36,29.68 C164.247999,29.68 164.16,29.6480003 164.096,29.584 C164.032,29.5199997 164,29.4320006 164,29.32 L164,28.144 C164,28.0319994 164.032,27.9440003 164.096,27.88 C164.16,27.8159997 164.247999,27.784 164.36,27.784 L165.68,27.784 C165.76,27.784 165.8,27.7440004 165.8,27.664 L165.8,24.976 C165.8,24.8639994 165.832,24.7760003 165.896,24.712 C165.96,24.6479997 166.047999,24.616 166.16,24.616 L167.648,24.616 C167.760001,24.616 167.848,24.6479997 167.912,24.712 C167.976,24.7760003 168.008,24.8639994 168.008,24.976 L168.008,27.664 C168.008,27.7440004 168.048,27.784 168.128,27.784 L170.576,27.784 C170.688001,27.784 170.776,27.8159997 170.84,27.88 C170.904,27.9440003 170.936,28.0319994 170.936,28.144 L170.936,29.32 Z" id="Buy-Ticket" fill="#321F6E"></path>
        </g>
    </g>
</svg>