<?xml version="1.0" encoding="UTF-8"?>
<svg width="40px" height="40px" viewBox="0 0 40 40" version="1.1" xmlns="http://www.w3.org/2000/svg" xmlns:xlink="http://www.w3.org/1999/xlink">
    <!-- Generator: Sketch 49.3 (51167) - http://www.bohemiancoding.com/sketch -->
    <title>icon/icon_arrow_right</title>
    <desc>Created with Sketch.</desc>
    <defs>
        <path d="M20,20 L13.8492424,13.904932 C12.7169192,12.7828609 12.7169192,10.9636243 13.8492424,9.84155328 C14.9815656,8.71948224 16.8174243,8.71948224 17.9497475,9.84155328 L26.1507576,17.9683107 C27.2830808,19.0903817 27.2830808,20.9096183 26.1507576,22.0316893 L17.9497475,30.1584467 C16.8174243,31.2805178 14.9815656,31.2805178 13.8492424,30.1584467 C12.7169192,29.0363757 12.7169192,27.2171391 13.8492424,26.095068 L20,20 Z" id="path-1"></path>
    </defs>
    <g id="icon/icon_arrow_right" stroke="none" stroke-width="1" fill="none" fill-rule="evenodd">
        <g id="Combined-Shape">
            <use fill="#02F694" fill-rule="evenodd" xlink:href="#path-1"></use>
            <path stroke="#02F694" stroke-width="2" d="M14.5531262,13.1946169 L21.420689,20 L14.5531262,26.8053831 C13.8156246,27.5362074 13.8156246,28.7173074 14.5531262,29.4481316 C15.2956739,30.1839561 16.503316,30.1839561 17.2458636,29.4481316 L25.4468738,21.3213742 C26.1843754,20.59055 26.1843754,19.40945 25.4468738,18.6786258 L17.2458636,10.5518684 C16.503316,9.81604387 15.2956739,9.81604387 14.5531262,10.5518684 C13.8156246,11.2826926 13.8156246,12.4637926 14.5531262,13.1946169 Z"></path>
        </g>
    </g>
</svg>