<svg width="1440" height="2261" xmlns="http://www.w3.org/2000/svg">
  <g fill="#594A9D" fill-rule="evenodd" fill-opacity=".1" opacity=".8">
    <path d="M1288.915 1937.65l-291.003 78.587c-16.778 4.527-27.548 2.408-31.685-.798-3.85-2.971-6.238-11.323-6.238-21.807v-414.24c0-127.706 86.671-293.413 211.048-326.997l179.991-48.609c64.01-17.28 102.002-83.596 84.856-148.123-17.16-64.514-82.986-102.804-146.969-85.51l-179.991 48.61C865.48 1084.5 720 1355.445 720 1579.392v414.24c0 86.595 36.503 164.496 100.132 213.696 45.35 35.084 101.333 53.286 160.456 53.286 26.074 0 52.776-3.55 79.437-10.745l291.003-78.588c64.01-17.281 102.002-83.597 84.856-148.11-17.16-64.527-82.945-102.804-146.969-85.523zM618.868 1036.212C682.51 1085.367 719 1163.162 719 1249.668v413.734c0 223.694-144.089 499.787-388.924 559.978C-1.116 2304.788-.966 1968.106-.966 1968.106v-474.007c0-66.704 53.718-120.793 119.994-120.793 66.277 0 119.995 54.089 119.995 120.793v510.85c30.551-11.241 58.263-24.86 78.221-36.17 100.65-57.043 161.767-192.224 161.767-305.377v-413.734c0-10.472-2.389-18.827-6.238-21.795-4.137-3.202-14.921-5.305-31.671-.783l-291.017 78.495c-64.01 17.246-129.81-20.985-146.97-85.421-17.145-64.437 20.846-130.674 84.857-147.934l291.003-78.495c87.095-23.5 174.531-8.012 239.893 42.477zm-406.506 977.655V1494.1c0-51.808-41.869-93.941-93.334-93.941s-93.333 42.133-93.333 93.941v444.242c1.201 14.965 6.252 32.65 13.61 44.222 34.783 54.693 107.067 51.038 173.057 31.304z"/>
    <path d="M1053.585 317.794l297.45-80.243c64.012-17.277 102.003-83.527 84.844-147.977-17.146-64.45-82.933-102.702-146.958-85.424l-297.45 80.242C839.245 125.462 720 281.934 720 440.605V571.51c.11-.014.205.014.314 0 .983 10.199 5.42 34.128 25.979 50.059 20.176 15.628 49.13 18.514 86.003 8.563l437.8-116.57c55.698-15.037 113.13 18.376 128.05 74.428 7.222 27.16 3.522 55.53-10.443 79.885-13.965 24.342-36.518 41.757-63.479 49.042l-445.69 118.7c-1.557.372-151.845 37.785-158.234 184.98-.109.027-.19.096-.3.11v5.91c0 .673.041 1.333.055 2.006-.014.55-.055 1.086-.055 1.65h.096c1.01 86.263 37.445 163.413 100.46 212.097 44.517 34.39 99.218 52.244 156.773 52.244 25.077 0 50.7-3.38 76.256-10.28l297.45-80.243c64.012-17.278 102.003-83.514 84.844-147.978-17.146-64.45-82.933-102.702-146.958-85.424l-297.45 80.242c-12.545 3.382-21.5 2.31-24.818-.26-3.317-2.557-6.662-10.997-6.662-24.054V841.515l371.086-98.825c33.814-9.113 62.073-30.954 79.574-61.481 17.5-30.514 22.156-66.086 13.092-100.118-18.703-70.264-90.673-112.144-160.513-93.3L959.99 568.528V440.605c0-50.155 45.487-109.836 93.594-122.81zM333.596 318.1l297.436-80.32c64.008-17.294 101.998-83.594 84.852-148.12-17.158-64.512-82.955-102.8-146.963-85.506l-297.436 80.32C119.266 125.581.027 282.19.027 441.027v126.038H0c0 .069.027.536.027.743v1.664c.028 0 .055.014.082.014.464 8.131 3.727 35.276 26.182 52.68 20.19 15.643 49.13 18.532 86 8.571l437.792-116.682c55.695-15.052 113.123 18.394 128.03 74.5 7.235 27.186 3.522 55.583-10.443 79.962-13.965 24.365-36.502 41.797-63.476 49.089L158.526 836.422c-1.556.371-152.779 38.068-158.267 186.6-.082.014-.15.07-.232.083v7.443c0 .248-.027.468-.027.716h.027v156.264c0 66.782 53.716 120.934 119.99 120.934s119.99-54.152 119.99-120.934V842.324l371.054-98.92c33.799-9.122 62.07-30.984 79.57-61.54 17.5-30.544 22.155-66.15 13.077-100.215-18.688-70.331-90.668-112.252-160.491-93.39l-303.21 80.815V441.028c0-50.203 45.484-109.941 93.59-122.929z"/>
  </g>
</svg>
