<?xml version="1.0" encoding="UTF-8"?>
<svg width="400px" height="209px" viewBox="0 0 400 209" version="1.1" xmlns="http://www.w3.org/2000/svg" xmlns:xlink="http://www.w3.org/1999/xlink">
    <!-- Generator: Sketch 48.2 (47327) - http://www.bohemiancoding.com/sketch -->
    <title>logo_index</title>
    <desc>Created with Sketch.</desc>
    <defs></defs>
    <g id="fedc_web_index" stroke="none" stroke-width="1" fill="none" fill-rule="evenodd" transform="translate(-520.000000, -271.000000)">
        <g id="Group-4" transform="translate(520.000000, 225.000000)" fill="#02F694">
            <path d="M380.116661,182.515448 L341.819523,192.826552 C339.611558,193.420451 338.194077,193.142456 337.649721,192.721852 C337.143093,192.331937 336.828696,191.236201 336.828696,189.860665 L336.828696,135.510748 C336.828696,118.755204 348.235017,97.0137926 364.603419,92.6073841 L388.290981,86.229735 C396.715022,83.9624474 401.714832,75.2615506 399.45836,66.7953253 C397.200092,58.3309052 388.537109,53.3071301 380.116661,55.5762229 L356.429099,61.9538719 C324.391154,70.5789518 305.245279,106.128072 305.245279,135.510748 L305.245279,189.860665 C305.245279,201.222376 310.049264,211.443222 318.423002,217.898493 C324.391154,222.501664 331.758821,224.889898 339.539696,224.889898 C342.971114,224.889898 346.485173,224.424165 349.993843,223.480064 L388.290981,213.16896 C396.715022,210.901672 401.714832,202.200775 399.45836,193.736355 C397.200092,185.27013 388.542499,180.24816 380.116661,182.515448 Z M229.060617,225.810532 C220.376075,228.40275 210.863323,228.882924 206.285703,221.698366 C205.317361,220.178417 204.652636,217.855169 204.494539,215.889344 L204.494539,157.533765 C204.494539,150.728292 210.00457,145.193655 216.777578,145.193655 C223.550586,145.193655 229.060617,150.728292 229.060617,157.533765 L229.060617,225.810532 Z M282.558397,97.3856567 C273.956497,90.7534793 262.44957,88.719058 250.987556,91.8058907 L212.690418,102.116995 C204.266377,104.384283 199.266567,113.085179 201.523039,121.5496 C203.781307,130.01402 212.440697,135.03599 220.864738,132.770507 L259.163673,122.459403 C261.368045,121.865503 262.787322,122.141694 263.331678,122.562297 C263.838306,122.952213 264.152703,124.049753 264.152703,125.425289 L264.152703,179.773401 C264.152703,194.637133 256.109531,212.394544 242.86354,219.887785 C240.236978,221.373436 236.589974,223.162355 232.569286,224.63898 L232.569286,157.533765 C232.569286,148.771492 225.499847,141.666362 216.777578,141.666362 C208.055309,141.666362 200.98587,148.771492 200.98587,157.533765 L200.98587,219.799332 C200.98587,219.799332 200.966107,264.025882 244.552301,253.332083 C276.773494,245.425459 295.73612,209.157882 295.73612,179.773401 L295.73612,125.425289 C295.73612,114.061774 290.933931,103.842733 282.558397,97.3856567 Z M145.420255,87.7370481 L184.565367,77.198493 C192.989408,74.9294002 197.989218,66.2285034 195.730949,57.7640833 C193.474478,49.2996631 184.816885,44.2758881 176.391047,46.5449809 L137.245935,57.0835359 C117.212563,62.4773699 101.519665,83.0273718 101.519665,103.8662 L101.519665,121.058595 C101.534038,121.056789 101.546614,121.0604 101.560986,121.058595 C101.690338,122.398027 102.274218,125.54082 104.979828,127.633007 C107.635135,129.68548 111.445625,130.064564 116.298117,128.757625 L173.913599,113.448018 C181.243539,111.473167 188.801641,115.861524 190.765275,123.222988 C191.715652,126.789994 191.228786,130.515856 189.390911,133.714609 C187.553036,136.911556 184.585129,139.198701 181.036935,140.155438 L122.383045,155.744846 C122.178238,155.793585 102.399977,160.707245 101.559189,180.038761 C101.544817,180.042371 101.534038,180.051397 101.519665,180.053202 L101.519665,180.829423 C101.519665,180.917876 101.525055,181.004524 101.526851,181.092977 C101.525055,181.165184 101.519665,181.235585 101.519665,181.309597 L101.532241,181.309597 C101.665186,192.638815 106.460188,202.771207 114.753081,209.165103 C120.611643,213.681627 127.810434,216.026536 135.384705,216.026536 C138.684975,216.026536 142.057106,215.582466 145.420255,214.676273 L184.565367,204.137718 C192.989408,201.868625 197.989218,193.169533 195.730949,184.703308 C193.474478,176.238888 184.816885,171.215113 176.391047,173.484205 L137.245935,184.022761 C135.594902,184.466831 134.416363,184.326028 133.9798,183.988462 C133.543238,183.652702 133.103082,182.54433 133.103082,180.829423 L133.103082,156.519262 L181.938806,143.540123 C186.388869,142.343299 190.107736,139.474891 192.410918,135.465619 C194.7141,131.458152 195.326725,126.786384 194.133813,122.316795 C191.672534,113.08879 182.201102,107.588451 173.009933,110.063333 L133.103082,120.666874 L133.103082,103.8662 C133.103082,97.2791519 139.0892,89.4411241 145.420255,87.7370481 Z M43.9041831,116.025794 L83.0492951,105.487239 C91.4733361,103.218146 96.4731455,94.5190542 94.2166739,86.0528288 C91.9584057,77.5884087 83.2990161,72.5646336 74.874975,74.8337264 L35.7298631,85.3722815 C15.696491,90.7661155 0.00359310771,111.314312 0.00359310771,132.154946 L0.00359310771,148.692065 L0,148.692065 C0,148.701091 0.00359310771,148.762467 0.00359310771,148.789544 L0.00359310771,149.007969 C0.00718621542,149.007969 0.0107793231,149.009774 0.0143724308,149.009774 C0.0754552619,150.076627 0.504831633,153.638218 3.46016273,155.921752 C6.11726588,157.974225 9.92596005,158.35331 14.778452,157.04637 L72.3957307,141.736763 C79.7256705,139.761912 87.2837725,144.150269 89.2456093,151.511733 C90.1977829,155.07874 89.7091202,158.804601 87.8712456,162.003354 C86.033371,165.200302 83.0672606,167.487446 79.5172702,168.444184 L20.8633799,184.033592 C20.6585728,184.082331 0.756349173,189.028484 0.0341345233,208.517049 C0.0233552001,208.518854 0.0143724308,208.526075 0.00359310771,208.52788 L0.00359310771,209.504474 C0.00359310771,209.536967 0,209.56585 0,209.598343 L0.00359310771,209.598343 L0.00359310771,230.10141 C0.00359310771,238.863683 7.07303253,245.968813 15.7953015,245.968813 C24.5175705,245.968813 31.5870099,238.863683 31.5870099,230.10141 L31.5870099,184.808007 L80.4209368,171.828869 C84.8692041,170.632044 88.5898672,167.763637 90.8930492,163.754364 C93.1962313,159.746897 93.8088561,155.07513 92.6141478,150.60554 C90.1546656,141.377535 80.6814371,135.877197 71.4920641,138.352078 L31.5870099,148.955619 L31.5870099,132.154946 C31.5870099,125.567897 37.5731273,117.72987 43.9041831,116.025794 Z" id="logo_index"></path>
        </g>
    </g>
</svg>