<?xml version="1.0" encoding="UTF-8"?>
<svg width="1440px" height="1024px" viewBox="0 0 1440 1024" version="1.1" xmlns="http://www.w3.org/2000/svg" xmlns:xlink="http://www.w3.org/1999/xlink">
    <!-- Generator: Sketch 50 (54983) - http://www.bohemiancoding.com/sketch -->
    <title>fedc_web_index</title>
    <desc>Created with Sketch.</desc>
    <defs>
        <filter x="-7.5%" y="-20.0%" width="115.0%" height="140.0%" filterUnits="objectBoundingBox" id="filter-1">
            <feGaussianBlur stdDeviation="10" in="SourceGraphic"></feGaussianBlur>
        </filter>
        <filter x="-2.0%" y="-5.3%" width="103.9%" height="110.7%" filterUnits="objectBoundingBox" id="filter-2">
            <feGaussianBlur stdDeviation="5" in="SourceGraphic"></feGaussianBlur>
        </filter>
        <filter x="-3.0%" y="-5.3%" width="106.0%" height="110.7%" filterUnits="objectBoundingBox" id="filter-3">
            <feGaussianBlur stdDeviation="5" in="SourceGraphic"></feGaussianBlur>
        </filter>
        <filter x="-27.9%" y="-35.6%" width="155.7%" height="171.1%" filterUnits="objectBoundingBox" id="filter-4">
            <feGaussianBlur stdDeviation="10" in="SourceGraphic"></feGaussianBlur>
        </filter>
        <filter x="-4.4%" y="-16.7%" width="108.7%" height="133.3%" filterUnits="objectBoundingBox" id="filter-5">
            <feGaussianBlur stdDeviation="3" in="SourceGraphic"></feGaussianBlur>
        </filter>
        <filter x="-12.6%" y="-16.7%" width="125.2%" height="133.3%" filterUnits="objectBoundingBox" id="filter-6">
            <feGaussianBlur stdDeviation="3" in="SourceGraphic"></feGaussianBlur>
        </filter>
    </defs>
    <g id="fedc_web_index" stroke="none" stroke-width="1" fill="none" fill-rule="evenodd">
        <g id="Group" transform="translate(-233.000000, 173.000000)">
            <g id="Group-3-Copy-3" transform="translate(888.000000, 353.000000)" stroke="#02F694" stroke-width="8">
                <rect id="Rectangle-2-Copy" opacity="0.100000001" transform="translate(177.386535, 139.496305) rotate(-15.000000) translate(-177.386535, -139.496305) " x="11.3865352" y="93.4963047" width="332" height="92" rx="46"></rect>
                <rect id="Rectangle-2-Copy-2" opacity="0.300000012" transform="translate(460.040141, 64.330999) rotate(-15.000000) translate(-460.040141, -64.330999) " x="405.173306" y="18.330999" width="109.73367" height="92" rx="46"></rect>
            </g>
            <g id="Group-4-Copy" transform="translate(1108.000000, 142.000000)" fill="#594A9D">
                <rect id="Rectangle-2" opacity="0.5" filter="url(#filter-1)" transform="translate(457.113631, 124.078836) rotate(-15.000000) translate(-457.113631, -124.078836) " x="257.613631" y="49.0788365" width="399" height="150" rx="75"></rect>
                <rect id="Rectangle-2-Copy-4" opacity="0.200000003" transform="translate(112.711641, 217.391630) rotate(-15.000000) translate(-112.711641, -217.391630) " x="16.3230877" y="142.39163" width="192.777106" height="150" rx="75"></rect>
            </g>
            <g id="Group-3-Copy" transform="translate(100.000000, 0.000000)" stroke-width="5">
                <rect id="Rectangle-2-Copy" stroke="#594A9D" opacity="0.699999988" filter="url(#filter-2)" transform="translate(404.000000, 378.500000) rotate(-15.000000) translate(-404.000000, -378.500000) " x="26.5" y="240.5" width="755" height="276" rx="138"></rect>
                <rect id="Rectangle-2-Copy-2" stroke="#02F694" opacity="0.300000012" filter="url(#filter-3)" transform="translate(1084.845532, 200.417340) rotate(-15.000000) translate(-1084.845532, -200.417340) " x="837.345532" y="62.4173399" width="495" height="276" rx="138"></rect>
            </g>
            <g id="Group-3-Copy-2" transform="translate(646.000000, 381.500000) rotate(-180.000000) translate(-646.000000, -381.500000) translate(339.000000, 261.000000)">
                <rect id="Rectangle-2-Copy" stroke="#02F694" stroke-width="3" opacity="0.300000012" transform="translate(229.760737, 141.524365) rotate(-15.000000) translate(-229.760737, -141.524365) " x="5.16623506" y="100.854091" width="449.189003" height="81.3405483" rx="40.6702742"></rect>
                <rect id="Rectangle-2-Copy-2" fill="#02F694" opacity="0.699999988" filter="url(#filter-4)" transform="translate(551.016795, 54.676149) rotate(-15.000000) translate(-551.016795, -54.676149) " x="497.195877" y="12.5058748" width="107.641836" height="84.3405483" rx="42.1702742"></rect>
            </g>
            <g id="Group-4-Copy-2" transform="translate(212.000000, 101.000000)" fill="#594A9D">
                <rect id="Rectangle-2" opacity="0.800000012" transform="translate(184.187906, 51.695587) rotate(-15.000000) translate(-184.187906, -51.695587) " x="93.5954216" y="36.695587" width="181.184968" height="30" rx="15"></rect>
                <rect id="Rectangle-2-Copy-4" opacity="0.5" transform="translate(44.834991, 89.348943) rotate(-15.000000) translate(-44.834991, -89.348943) " x="2.87495881" y="74.3489428" width="83.9200643" height="30" rx="15"></rect>
                <rect id="Rectangle-2-Copy-5" opacity="0.300000012" transform="translate(301.421350, 19.355692) rotate(-15.000000) translate(-301.421350, -19.355692) " x="283.263574" y="4.35569203" width="36.3155516" height="30" rx="15"></rect>
            </g>
            <g id="Group-6" transform="translate(1521.394025, 501.773445) rotate(-15.000000) translate(-1521.394025, -501.773445) translate(1371.894025, 474.773445)" stroke="#02F694" stroke-width="3">
                <rect id="Rectangle-3" opacity="0.600000024" filter="url(#filter-5)" x="1.5" y="1.5" width="203.672131" height="51" rx="25.5"></rect>
                <rect id="Rectangle-3-Copy" opacity="0.300000012" filter="url(#filter-6)" x="229.155738" y="1.5" width="68.3442623" height="51" rx="25.5"></rect>
            </g>
            <rect id="Rectangle-2" stroke="#02F694" stroke-width="3" opacity="0.300000012" transform="translate(212.113631, 345.078836) rotate(-15.000000) translate(-212.113631, -345.078836) " x="14.1136307" y="271.578836" width="396" height="147" rx="73.5"></rect>
        </g>
    </g>
</svg>