<?xml version="1.0" encoding="UTF-8"?>
<svg width="204px" height="64px" viewBox="0 0 204 64" version="1.1" xmlns="http://www.w3.org/2000/svg" xmlns:xlink="http://www.w3.org/1999/xlink">
    <!-- Generator: Sketch 48.2 (47327) - http://www.bohemiancoding.com/sketch -->
    <title>btn_ticket</title>
    <desc>Created with Sketch.</desc>
    <defs></defs>
    <g id="fedc_web_index" stroke="none" stroke-width="1" fill="none" fill-rule="evenodd" transform="translate(-1208.000000, -29.000000)">
        <g id="btn_ticket" transform="translate(1208.000000, 29.000000)" fill="#02F694" fill-rule="nonzero">
            <path d="M3.5,42.3936667 L3.5,57 C3.5,58.9329966 5.06700338,60.5 7,60.5 L197,60.5 C198.932997,60.5 200.5,58.9329966 200.5,57 L200.5,7 C200.5,5.06700338 198.932997,3.5 197,3.5 L7,3.5 C5.06700338,3.5 3.5,5.06700338 3.5,7 L3.5,21.6063333 C8.58844121,22.3341778 12.5,26.7102921 12.5,32 C12.5,37.2897079 8.58844121,41.6658222 3.5,42.3936667 Z M2,39.5 C6.14213562,39.5 9.5,36.1421356 9.5,32 C9.5,27.8578644 6.14213562,24.5 2,24.5 C1.17157288,24.5 0.5,23.8284271 0.5,23 L0.5,7 C0.5,3.41014913 3.41014913,0.5 7,0.5 L197,0.5 C200.589851,0.5 203.5,3.41014913 203.5,7 L203.5,57 C203.5,60.5898509 200.589851,63.5 197,63.5 L7,63.5 C3.41014913,63.5 0.5,60.5898509 0.5,57 L0.5,41 C0.5,40.1715729 1.17157288,39.5 2,39.5 Z M30.5,1 L30.5,1 C31.3284271,1 32,1.67157288 32,2.5 L32,6.5 C32,7.32842712 31.3284271,8 30.5,8 L30.5,8 C29.6715729,8 29,7.32842712 29,6.5 L29,2.5 C29,1.67157288 29.6715729,1 30.5,1 Z M30.5,12 L30.5,12 C31.3284271,12 32,12.6715729 32,13.5 L32,17.5 C32,18.3284271 31.3284271,19 30.5,19 L30.5,19 C29.6715729,19 29,18.3284271 29,17.5 L29,13.5 C29,12.6715729 29.6715729,12 30.5,12 Z M30.5,23 L30.5,23 C31.3284271,23 32,23.6715729 32,24.5 L32,28.5 C32,29.3284271 31.3284271,30 30.5,30 L30.5,30 C29.6715729,30 29,29.3284271 29,28.5 L29,24.5 C29,23.6715729 29.6715729,23 30.5,23 Z M30.5,34 L30.5,34 C31.3284271,34 32,34.6715729 32,35.5 L32,39.5 C32,40.3284271 31.3284271,41 30.5,41 L30.5,41 C29.6715729,41 29,40.3284271 29,39.5 L29,35.5 C29,34.6715729 29.6715729,34 30.5,34 Z M30.5,45 L30.5,45 C31.3284271,45 32,45.6715729 32,46.5 L32,50.5 C32,51.3284271 31.3284271,52 30.5,52 L30.5,52 C29.6715729,52 29,51.3284271 29,50.5 L29,46.5 C29,45.6715729 29.6715729,45 30.5,45 Z M30.5,56 L30.5,56 C31.3284271,56 32,56.6715729 32,57.5 L32,61.5 C32,62.3284271 31.3284271,63 30.5,63 L30.5,63 C29.6715729,63 29,62.3284271 29,61.5 L29,57.5 C29,56.6715729 29.6715729,56 30.5,56 Z"></path>
        </g>
    </g>
</svg>