<?xml version="1.0" encoding="UTF-8"?>
<svg width="204px" height="64px" viewBox="0 0 204 64" version="1.1" xmlns="http://www.w3.org/2000/svg" xmlns:xlink="http://www.w3.org/1999/xlink">
    <!-- Generator: Sketch 48.2 (47327) - http://www.bohemiancoding.com/sketch -->
    <title>btn_ticket_h</title>
    <desc>Created with Sketch.</desc>
    <defs></defs>
    <g id="fedc_web_index_說明" stroke="none" stroke-width="1" fill="none" fill-rule="evenodd" transform="translate(-1208.000000, -29.000000)">
        <g id="btn_ticket_h" transform="translate(1210.000000, 30.000000)" fill="#02F694">
            <path d="M0,40 C4.97056275,40 9,35.9705627 9,31 C9,26.0294373 4.97056275,22 0,22 L0,6 C0,3.23857625 2.23857625,1 5,1 L195,1 C197.761424,1 200,3.23857625 200,6 L200,56 C200,58.7614237 197.761424,61 195,61 L5,61 C2.23857625,61 0,58.7614237 0,56 L0,40 Z" id="Combined-Shape" stroke="#02F694" stroke-width="3" fill-opacity="0.200000018" stroke-linejoin="round"></path>
            <rect id="Rectangle" x="27" y="0" width="3" height="7" rx="1.5"></rect>
            <rect id="Rectangle-Copy" x="27" y="11" width="3" height="7" rx="1.5"></rect>
            <rect id="Rectangle-Copy-2" x="27" y="22" width="3" height="7" rx="1.5"></rect>
            <rect id="Rectangle-Copy-3" x="27" y="33" width="3" height="7" rx="1.5"></rect>
            <rect id="Rectangle-Copy-4" x="27" y="44" width="3" height="7" rx="1.5"></rect>
            <rect id="Rectangle-Copy-5" x="27" y="55" width="3" height="7" rx="1.5"></rect>
        </g>
    </g>
</svg>