<?xml version="1.0" encoding="UTF-8"?>
<svg width="200px" height="105px" viewBox="0 0 200 105" version="1.1" xmlns="http://www.w3.org/2000/svg" xmlns:xlink="http://www.w3.org/1999/xlink">
    <!-- Generator: Sketch 49.1 (51147) - http://www.bohemiancoding.com/sketch -->
    <title>logo_index_white</title>
    <desc>Created with Sketch.</desc>
    <defs></defs>
    <g id="mobile" stroke="none" stroke-width="1" fill="none" fill-rule="evenodd">
        <g id="fedc_mobile_index" transform="translate(-80.000000, -180.000000)" fill="#FFFFFF">
            <g id="Group-4" transform="translate(80.000000, 157.000000)">
                <path d="M190.058331,91.4694586 L170.909761,96.6369726 C169.805779,96.9346113 169.097039,96.795291 168.824861,96.5845013 C168.571547,96.3890911 168.414348,95.8399523 168.414348,95.1505886 L168.414348,67.9125791 C168.414348,59.5153689 174.117508,48.6194413 182.301709,46.4111252 L194.145491,43.214902 C198.357511,42.0786279 200.857416,37.7180857 199.72918,33.4751514 C198.600046,29.2331218 194.268555,26.7154063 190.058331,27.852585 L178.214549,31.0488082 C162.195577,35.371354 152.62264,53.1871545 152.62264,67.9125791 L152.62264,95.1505886 C152.62264,100.844624 155.024632,105.966905 159.211501,109.202029 C162.195577,111.508955 165.879411,112.705842 169.769848,112.705842 C171.485557,112.705842 173.242587,112.472436 174.996921,111.99929 L194.145491,106.831776 C198.357511,105.695502 200.857416,101.334959 199.72918,97.0929297 C198.600046,92.8499955 194.271249,90.3331846 190.058331,91.4694586 Z M114.530308,113.167227 C110.188038,114.466343 105.431661,114.706987 103.142852,111.106374 C102.65868,110.344636 102.326318,109.180317 102.24727,108.195124 L102.24727,78.9496362 C102.24727,75.5390046 105.002285,72.7652655 108.388789,72.7652655 C111.775293,72.7652655 114.530308,75.5390046 114.530308,78.9496362 L114.530308,113.167227 Z M141.279199,48.8058047 C136.978249,45.4820221 131.224785,44.4624513 125.493778,46.0094487 L106.345209,51.1769627 C102.133188,52.3132367 99.6332837,56.673779 100.76152,60.9158086 C101.890654,65.1578382 106.220348,67.6746491 110.432369,66.5392797 L129.581837,61.3717657 C130.684022,61.074127 131.393661,61.2125426 131.665839,61.4233323 C131.919153,61.6187425 132.076352,62.168786 132.076352,62.8581497 L132.076352,90.0952546 C132.076352,97.5443634 128.054766,106.443669 121.43177,110.198983 C120.118489,110.943532 118.294987,111.840066 116.284643,112.580092 L116.284643,78.9496362 C116.284643,74.5583349 112.749923,70.997527 108.388789,70.997527 C104.027654,70.997527 100.492935,74.5583349 100.492935,78.9496362 L100.492935,110.154654 C100.492935,110.154654 100.483054,132.319236 122.27615,126.95993 C138.386747,122.997446 147.86806,104.821584 147.86806,90.0952546 L147.86806,62.8581497 C147.86806,57.1632091 145.466966,52.0418337 141.279199,48.8058047 Z M72.7101276,43.9703072 L92.2826836,38.6888039 C96.4947041,37.5516252 98.9946088,33.1910829 97.8654747,28.9490533 C96.7372389,24.7070237 92.4084424,22.1893082 88.1955236,23.3264869 L68.6229676,28.6079902 C58.6062816,31.3111645 50.7598326,41.6100053 50.7598326,52.0535945 L50.7598326,60.6697365 C50.7670189,60.6688318 50.7733068,60.6706412 50.780493,60.6697365 C50.8451689,61.3410067 51.1371089,62.916049 52.489914,63.9645694 C53.8175673,64.993187 55.7228127,65.1831691 58.1490586,64.5281831 L86.9567997,56.855619 C90.6217696,55.8659026 94.4008206,58.0651719 95.3826373,61.754444 C95.8578258,63.5420854 95.6143928,65.4093383 94.6954555,67.0124256 C93.7765182,68.6146083 92.2925647,69.7608338 90.5184677,70.2403125 L61.1915226,78.0531015 C61.089119,78.0775277 51.1999883,80.540058 50.7795947,90.228242 C50.7724085,90.2300514 50.7670189,90.2345748 50.7598326,90.2354795 L50.7598326,90.6244905 C50.7598326,90.6688197 50.7625275,90.7122441 50.7634257,90.7565733 C50.7625275,90.7927604 50.7598326,90.8280428 50.7598326,90.8651345 L50.7661206,90.8651345 C50.8325931,96.5428862 53.2300942,101.620837 57.3765405,104.825202 C60.3058216,107.088704 63.9052172,108.263879 67.6923527,108.263879 C69.3424874,108.263879 71.0285532,108.041329 72.7101276,107.587181 L92.2826836,102.305678 C96.4947041,101.168499 98.9946088,96.8088612 97.8654747,92.5659269 C96.7372389,88.3238973 92.4084424,85.8061818 88.1955236,86.9433605 L68.6229676,92.2248638 C67.7974511,92.4474143 67.2081815,92.3768495 66.9899002,92.2076749 C66.7716189,92.039405 66.551541,91.4839335 66.551541,90.6244905 L66.551541,78.4412078 L90.9694028,71.9365815 C93.1944347,71.3367808 95.053868,69.8992493 96.205459,67.8899621 C97.35705,65.8815796 97.6633624,63.540276 97.0669065,61.3002962 C95.8362672,56.6755883 91.1005512,53.9190381 86.5049664,55.15935 L66.551541,60.4734216 L66.551541,52.0535945 C66.551541,48.7524288 69.5445998,44.8243221 72.7101276,43.9703072 Z M21.9520916,58.1474975 L41.5246475,52.8659943 C45.7366681,51.7288155 48.2365727,47.369178 47.1083369,43.1262437 C45.9792028,38.8842141 41.649508,36.3664985 37.4374875,37.5036773 L17.8649315,42.7851805 C7.84824552,45.4883549 0.00179655386,55.786291 0.00179655386,66.2307849 L0.00179655386,74.5185292 L0,74.5185292 C0,74.5230525 0.00179655386,74.5538116 0.00179655386,74.5673817 L0.00179655386,74.6768476 C0.00359310771,74.6768476 0.00538966157,74.6777523 0.00718621542,74.6777523 C0.037727631,75.2124163 0.252415817,76.9973436 1.73008136,78.1417598 C3.05863294,79.1703773 4.96298003,79.3603595 7.38922601,78.7053735 L36.1978654,71.0328094 C39.8628352,70.043093 43.6418863,72.2423623 44.6228047,75.9316343 C45.0988914,77.7192757 44.8545601,79.5865287 43.9356228,81.189616 C43.0166855,82.7917986 41.5336303,83.9380242 39.7586351,84.4175029 L10.43169,92.2302918 C10.3292864,92.2547181 0.378174587,94.7335326 0.0170672616,104.500423 C0.0116776001,104.501328 0.00718621542,104.504947 0.00179655386,104.505852 L0.00179655386,104.995282 C0.00179655386,105.011566 0,105.026041 0,105.042325 L0.00179655386,105.042325 L0.00179655386,115.317644 C0.00179655386,119.708945 3.53651626,123.269753 7.89765075,123.269753 C12.2587852,123.269753 15.7935049,119.708945 15.7935049,115.317644 L15.7935049,92.6183982 L40.2104684,86.1137719 C42.4346021,85.5139712 44.2949336,84.0764397 45.4465246,82.0671525 C46.5981156,80.05877 46.9044281,77.7174664 46.3070739,75.4774866 C45.0773328,70.8527787 40.3407186,68.0962284 35.7460321,69.3365404 L15.7935049,74.650612 L15.7935049,66.2307849 C15.7935049,62.9296192 18.7865637,59.0015124 21.9520916,58.1474975 Z" id="logo_index_white"></path>
            </g>
        </g>
    </g>
</svg>