<?xml version="1.0" encoding="UTF-8"?>
<svg width="36px" height="36px" viewBox="0 0 36 36" version="1.1" xmlns="http://www.w3.org/2000/svg" xmlns:xlink="http://www.w3.org/1999/xlink">
    <!-- Generator: Sketch 48.2 (47327) - http://www.bohemiancoding.com/sketch -->
    <title>icon_fb</title>
    <desc>Created with Sketch.</desc>
    <defs></defs>
    <g id="fedc_mobile_menu" stroke="none" stroke-width="1" fill="none" fill-rule="evenodd" transform="translate(-162.000000, -420.000000)">
        <path d="M180,420 C170.074841,420 162,428.074841 162,438 C162,447.924434 170.074841,456 180,456 C189.924434,456 198,447.924434 198,438 C198,428.074841 189.925884,420 180,420 Z M184.476436,438.63369 L181.547974,438.63369 C181.547974,443.312414 181.547974,449.071457 181.547974,449.071457 L177.208572,449.071457 C177.208572,449.071457 177.208572,443.368243 177.208572,438.63369 L175.145815,438.63369 L175.145815,434.944655 L177.208572,434.944655 L177.208572,432.558527 C177.208572,430.849593 178.020624,428.179248 181.587851,428.179248 L184.803432,428.191573 L184.803432,431.772577 C184.803432,431.772577 182.849432,431.772577 182.469508,431.772577 C182.089584,431.772577 181.549424,431.962539 181.549424,432.777491 L181.549424,434.94538 L184.855635,434.94538 L184.476436,438.63369 Z" id="icon_fb" fill="#C2B9EE" fill-rule="nonzero"></path>
    </g>
</svg>