<svg width="40" height="40" xmlns="http://www.w3.org/2000/svg" xmlns:xlink="http://www.w3.org/1999/xlink">
  <defs>
    <path d="M20 20l-6.15-6.095a2.855 2.855 0 0 1 0-4.063 2.918 2.918 0 0 1 4.1 0l8.2 8.126a2.855 2.855 0 0 1 0 4.064l-8.2 8.126a2.918 2.918 0 0 1-4.1 0 2.855 2.855 0 0 1 0-4.063L20 20z" id="a"/>
  </defs>
  <g transform="rotate(-180 20 20)" fill="none" fill-rule="evenodd">
    <use fill="#02F694" xlink:href="#a"/>
    <path stroke="#02F694" stroke-width="2" d="M14.553 13.195L21.421 20l-6.868 6.805a1.855 1.855 0 0 0 0 2.643c.743.736 1.95.736 2.693 0l8.2-8.127a1.855 1.855 0 0 0 0-2.642l-8.2-8.127a1.918 1.918 0 0 0-2.693 0 1.855 1.855 0 0 0 0 2.643z"/>
  </g>
</svg>