<?xml version="1.0" encoding="UTF-8"?>
<svg width="36px" height="21px" viewBox="0 0 36 21" version="1.1" xmlns="http://www.w3.org/2000/svg" xmlns:xlink="http://www.w3.org/1999/xlink">
    <!-- Generator: Sketch 49.3 (51167) - http://www.bohemiancoding.com/sketch -->
    <title>2018</title>
    <desc>Created with Sketch.</desc>
    <defs></defs>
    <g id="mobile" stroke="none" stroke-width="1" fill="none" fill-rule="evenodd">
        <g id="fedc_mobile_menu" transform="translate(-191.000000, -157.000000)" fill="#FFFFFF">
            <g id="Group-7" transform="translate(-159.000000, 20.000000)">
                <g id="Group-4" transform="translate(239.000000, 137.000000)">
                    <path d="M111.77,20.8986233 C111.613999,20.9378204 111.536,20.8792385 111.536,20.7228758 L111.536,20.0553305 C111.536,19.9470794 111.572,19.8418123 111.644,19.739526 C112.544004,18.4429055 113.899991,16.4303439 115.712,13.7017807 C116.840006,11.9870351 117.404,10.7327603 117.404,9.9389187 C117.404,9.30143987 117.188002,8.8445338 116.756,8.56818679 C116.323998,8.29183977 115.760003,8.24110674 115.064,8.41598618 C114.379997,8.58785045 113.828002,8.92199634 113.408,9.41843386 C112.987998,9.91487138 112.784,10.4803135 112.796,11.1147772 L112.796,11.6199465 C112.796,11.7763093 112.718001,11.8740877 112.562,11.9132848 L111.734,12.12133 C111.577999,12.1605271 111.5,12.1019452 111.5,11.9455825 L111.5,11.2780372 C111.524,10.3458584 111.868997,9.51345504 112.535,8.78080209 C113.201003,8.04814915 114.043995,7.55368568 115.064,7.29739685 C115.784004,7.11648709 116.419997,7.09500466 116.972,7.23294893 C117.524003,7.3708932 117.949998,7.6457367 118.25,8.05748768 C118.550001,8.46923866 118.7,8.98181797 118.7,9.59524099 C118.7,10.6176127 118.136006,11.9921647 117.008,13.7189383 C116.467997,14.5642669 115.472007,16.0593908 114.02,18.2043551 L113.282,19.2918748 C113.258,19.3219609 113.252,19.3475239 113.264,19.3685646 C113.276,19.3896052 113.3,19.3956027 113.336,19.3865572 L118.844,18.0026045 C119.000001,17.9634073 119.078,18.0219893 119.078,18.178352 L119.078,18.8278555 C119.078,18.9842182 119.000001,19.0819967 118.844,19.1211938 L111.77,20.8986233 Z M126.08,17.4834774 C124.927994,17.772933 124.010003,17.6728272 123.326,17.1831568 C122.641997,16.6934864 122.3,15.8953797 122.3,14.7888127 L122.3,9.0876155 C122.3,7.98104848 122.641997,7.014087 123.326,6.18670204 C124.010003,5.35931709 124.927994,4.80090518 126.08,4.51144956 C127.244006,4.21897877 128.173996,4.31606952 128.87,4.80272471 C129.566003,5.2893799 129.914,6.0799652 129.914,7.17450432 L129.914,12.8757015 C129.914,13.9822685 129.566003,14.9537445 128.87,15.7901586 C128.173996,16.6265727 127.244006,17.1910066 126.08,17.4834774 Z M126.08,16.3648881 C126.848004,16.1719177 127.465998,15.7941262 127.934,15.2315025 C128.402002,14.6688788 128.636,14.0147118 128.636,13.2689818 L128.636,7.44149225 C128.636,6.7077902 128.405002,6.17647284 127.943,5.84752422 C127.480998,5.5185756 126.860004,5.45209507 126.08,5.64808065 C125.323996,5.8380359 124.718002,6.21281219 124.262,6.77242076 C123.805998,7.33202933 123.578,7.97867494 123.578,8.71237698 L123.578,14.5398665 C123.578,15.2855965 123.805998,15.8236815 124.262,16.1541377 C124.718002,16.4845939 125.323996,16.5548433 126.08,16.3648881 Z M134.684,2.58413162 C134.768,2.51491388 134.869999,2.46522993 134.99,2.43507831 L135.872,2.21346495 C136.028001,2.17426784 136.106,2.23284977 136.106,2.3892125 L136.106,14.549361 C136.106,14.7057237 136.028001,14.8035022 135.872,14.8426993 L135.062,15.0462218 C134.905999,15.0854189 134.828,15.0268369 134.828,14.8704742 L134.828,3.88304034 C134.828,3.84695663 134.819,3.82516253 134.801,3.81765737 C134.783,3.81015221 134.756,3.81693623 134.72,3.83800962 L132.83,5.10673296 C132.806,5.12479118 132.77,5.1398504 132.722,5.15191105 C132.613999,5.17904751 132.56,5.12646307 132.56,4.99415615 L132.56,4.43486148 C132.56,4.31458246 132.613999,4.21080651 132.722,4.12353054 L134.684,2.58413162 Z M146.582,6.8474016 C146.810001,7.25920171 146.924,7.81991646 146.924,8.5295627 C146.924,9.34746007 146.756002,10.0932934 146.42,10.7670852 C146.131998,11.3325931 145.721003,11.820748 145.187,12.2315645 C144.652997,12.642381 144.032003,12.9367321 143.324,13.1146267 C142.615996,13.2925213 141.992003,13.3049748 141.452,13.1519874 C140.911997,12.9990001 140.498001,12.6940791 140.21,12.2372153 C139.885998,11.7412854 139.724,11.1024232 139.724,10.3206095 C139.724,9.6590749 139.843999,9.02753762 140.084,8.42597876 C140.372001,7.75221974 140.773997,7.20017373 141.29,6.76982418 C141.35,6.71866465 141.35,6.68258149 141.29,6.6615736 C140.869998,6.50249044 140.534001,6.27419296 140.282,5.9766743 C139.921998,5.54992938 139.742,5.00579777 139.742,4.34426314 C139.742,3.67070061 139.909998,3.03913059 140.246,2.44953413 C140.546001,1.89303897 140.962997,1.41540426 141.497,1.01661566 C142.031003,0.61782707 142.639997,0.332504915 143.324,0.16064064 C144.080004,-0.0293146109 144.727997,-0.0508052226 145.268,0.0961681606 C145.808003,0.243141544 146.221998,0.557083328 146.51,1.03800293 C146.774001,1.44075754 146.906,1.94282488 146.906,2.54422 C146.906,3.20575463 146.732002,3.82079062 146.384,4.38934644 C146.107999,4.86764386 145.766002,5.28433706 145.358,5.63943854 C145.286,5.70564113 145.286,5.74773816 145.358,5.76573089 C145.910003,5.93975886 146.317999,6.30031216 146.582,6.8474016 Z M141.002,4.13592322 C141.002,4.64109512 141.133999,5.04694068 141.398,5.35347207 C141.590001,5.59389912 141.841998,5.75610144 142.154,5.84008389 C142.466001,5.92406634 142.825998,5.9208138 143.234,5.83032617 L143.342,5.80318984 C143.774002,5.69464399 144.154998,5.50870609 144.485,5.24537058 C144.815002,4.98203507 145.087999,4.66687285 145.304,4.29987446 C145.532001,3.8937772 145.646,3.44416331 145.646,2.95101932 C145.646,2.50598693 145.556001,2.14371321 145.376,1.86418728 C145.183999,1.56362072 144.911002,1.35858397 144.557,1.24907088 C144.202998,1.13955779 143.786002,1.14510442 143.306,1.26571093 C142.849998,1.38028711 142.448002,1.58052225 142.1,1.86642236 C141.751998,2.15232247 141.482001,2.49379328 141.29,2.89084506 C141.097999,3.29992473 141.002,3.71494663 141.002,4.13592322 Z M145.214,10.6190635 C145.502001,10.0655835 145.646,9.44004369 145.646,8.74242535 C145.646,8.32144877 145.574001,7.92458306 145.43,7.55181634 C145.261999,7.16102413 144.998002,6.89358743 144.638,6.74949821 C144.277998,6.605409 143.840003,6.5981905 143.324,6.7278425 C142.327995,6.978101 141.644002,7.58296069 141.272,8.5424397 C141.103999,8.93346115 141.02,9.39959269 141.02,9.94084829 C141.02,10.5783271 141.145999,11.0999436 141.398,11.5057134 C141.806002,12.0647325 142.447996,12.234186 143.324,12.0140792 C144.176004,11.8000026 144.805998,11.335002 145.214,10.6190635 Z" id="2018"></path>
                </g>
            </g>
        </g>
    </g>
</svg>