<?xml version="1.0" encoding="UTF-8"?>
<svg width="60px" height="92px" viewBox="0 0 60 92" version="1.1" xmlns="http://www.w3.org/2000/svg" xmlns:xlink="http://www.w3.org/1999/xlink">
    <!-- Generator: Sketch 49.3 (51167) - http://www.bohemiancoding.com/sketch -->
    <title>fedc_</title>
    <desc>Created with Sketch.</desc>
    <defs></defs>
    <g id="mobile" stroke="none" stroke-width="1" fill="none" fill-rule="evenodd">
        <g id="fedc_mobile_menu" transform="translate(-109.000000, -281.000000)">
            <g id="Group-7" transform="translate(-159.000000, 20.000000)">
                <g id="Group-4" transform="translate(239.000000, 137.000000)">
                    <g id="fedc_" transform="translate(29.500000, 124.287703)">
                        <path d="M17.0729625,20.3062287 C16.9538356,20.3361309 16.8671992,20.3036584 16.8130506,20.2088103 L14.4413546,15.7942275 C14.4196952,15.7562882 14.3872065,15.7427556 14.3438876,15.7536291 L11.6310572,16.4345806 C11.5769087,16.4481725 11.5498348,16.482078 11.5498348,16.536298 L11.5498348,21.4811399 C11.5498348,21.6221119 11.4794427,21.7102661 11.3386564,21.7456051 L10.6076542,21.929095 C10.4668678,21.964434 10.3964757,21.9116182 10.3964757,21.7706462 L10.3964757,10.7911453 C10.3964757,10.6501732 10.4668678,10.562019 10.6076542,10.52668 L14.7662445,9.4828263 C15.6976001,9.24904539 16.4502541,9.34748247 17.024229,9.77814049 C17.598204,10.2087985 17.8851872,10.8904095 17.8851872,11.822994 C17.8851872,12.5820744 17.6821331,13.275541 17.2760187,13.9034147 C16.8699043,14.5312883 16.3148897,15.0148953 15.6109581,15.3542503 C15.5568095,15.3786862 15.5405652,15.4152953 15.5622246,15.4640785 L17.9826542,19.8338968 C18.0043136,19.871836 18.0151431,19.9016492 18.0151431,19.9233372 C18.0151431,20.0209333 17.9501658,20.0860406 17.8202092,20.1186612 L17.0729625,20.3062287 Z M11.6310572,11.2782816 C11.5769087,11.2918736 11.5498348,11.325779 11.5498348,11.3799991 L11.5498348,15.4464809 C11.5498348,15.5007009 11.5769087,15.5210146 11.6310572,15.5074227 L14.6362885,14.7530753 C15.2644121,14.5954091 15.7734011,14.2751688 16.1632709,13.7923448 C16.5531407,13.3095209 16.7480727,12.753641 16.7480727,12.1246887 C16.7480727,11.4957364 16.5531407,11.032295 16.1632709,10.7343505 C15.7734011,10.4364061 15.2644121,10.366268 14.6362885,10.5239342 L11.6310572,11.2782816 Z M25.3089207,18.3690364 C24.5400108,18.5620415 23.8631637,18.5747022 23.278359,18.4070187 C22.6935543,18.2393352 22.2414204,17.9109394 21.9219438,17.4218214 C21.6024672,16.9327033 21.4427313,16.3140354 21.4427313,15.565799 L21.4427313,11.4667854 C21.4427313,10.718549 21.6024672,10.01969 21.9219438,9.37018738 C22.2414204,8.72068479 22.6935543,8.16530741 23.278359,7.70403858 C23.8631637,7.24276975 24.5400108,6.91563766 25.3089207,6.72263249 C26.0778305,6.52962731 26.7573851,6.51628708 27.3476046,6.68261139 C27.9378241,6.8489357 28.3926654,7.17665194 28.712142,7.66576995 C29.0316187,8.15488796 29.1913546,8.77355588 29.1913546,9.52179228 L29.1913546,13.6208059 C29.1913546,14.3690423 29.0316187,15.0679013 28.712142,15.7174039 C28.3926654,16.3669065 27.9378241,16.9229635 27.3476046,17.3855915 C26.7573851,17.8482195 26.0778305,18.1760312 25.3089207,18.3690364 Z M25.3089207,17.3768148 C26.1319791,17.1702177 26.7925819,16.7549905 27.2907489,16.1311206 C27.7889158,15.5072507 28.0379956,14.7832545 28.0379956,13.95911 L28.0379956,9.79503266 C28.0379956,8.97088822 27.7889158,8.3692247 27.2907489,7.99002404 C26.7925819,7.61082338 26.1319791,7.52452289 25.3089207,7.73111997 C24.4966919,7.93499868 23.8415039,8.35157771 23.343337,8.98086958 C22.84517,9.61016145 22.5960903,10.3368687 22.5960903,11.1610131 L22.5960903,15.3250905 C22.5960903,16.1492349 22.84517,16.7481875 23.343337,17.1219662 C23.8415039,17.4957448 24.4966919,17.5806935 25.3089207,17.3768148 Z M33.5773678,16.1634341 C33.4365815,16.1987731 33.3661894,16.1459574 33.3661894,16.0049853 L33.3661894,5.04175034 C33.3661894,4.90077827 33.4365815,4.81262406 33.5773678,4.77728509 L34.30837,4.59379517 C34.4058375,4.56932973 34.4870591,4.59773946 34.5520374,4.67902521 L40.0101872,12.1576316 C40.0318466,12.1847268 40.0535057,12.192845 40.0751652,12.1819862 C40.0968246,12.1711274 40.1076542,12.1440104 40.1076542,12.1006344 L40.1076542,3.34956557 C40.1076542,3.2085935 40.1780463,3.12043929 40.3188326,3.08510032 L41.0498348,2.9016104 C41.1906211,2.86627143 41.2610132,2.91908719 41.2610132,3.06005926 L41.2610132,14.0232942 C41.2610132,14.1642663 41.1906211,14.2524205 41.0498348,14.2877595 L40.3188326,14.4712494 C40.2213651,14.4957148 40.1401435,14.4673051 40.0751652,14.3860193 L34.6007709,6.87895865 C34.5791115,6.8518634 34.5574524,6.84374528 34.5357929,6.85460405 C34.5141335,6.86546282 34.5033039,6.89257981 34.5033039,6.93595583 L34.5195484,15.715479 C34.5195484,15.856451 34.4491563,15.9446053 34.30837,15.9799442 L33.5773678,16.1634341 Z M52.5671806,0.010624855 C52.7079669,-0.0247141201 52.778359,0.0281016371 52.778359,0.169073711 L52.778359,0.770913018 C52.778359,0.911885092 52.7079669,1.00003929 52.5671806,1.03537827 L49.4482379,1.81826857 C49.3940893,1.83186049 49.3670154,1.86576595 49.3670154,1.91998598 L49.3670154,11.9885949 C49.3670154,12.129567 49.2966233,12.2177212 49.155837,12.2530602 L48.4248348,12.4365501 C48.2840485,12.4718891 48.2136564,12.4190733 48.2136564,12.2781012 L48.2136564,2.20949229 C48.2136564,2.15527226 48.1865825,2.13495851 48.1324339,2.14855042 L45.1434471,2.89882029 C45.0026608,2.93415927 44.9322687,2.88134351 44.9322687,2.74037144 L44.9322687,2.13853213 C44.9322687,1.99756006 45.0026608,1.90940585 45.1434471,1.87406688 L52.5671806,0.010624855 Z M11.8584802,44.206689 C11.7176939,44.2420279 11.6473018,44.1892122 11.6473018,44.0482401 L11.6473018,33.0850052 C11.6473018,32.9440331 11.7176939,32.8558789 11.8584802,32.8205399 L12.5894824,32.63705 C12.6869498,32.6125846 12.7681715,32.6409943 12.8331498,32.72228 L18.2912996,40.2008864 C18.312959,40.2279817 18.3346181,40.2360998 18.3562775,40.225241 C18.377937,40.2143823 18.3887665,40.1872653 18.3887665,40.1438892 L18.3887665,31.3928204 C18.3887665,31.2518483 18.4591586,31.1636941 18.5999449,31.1283551 L19.3309471,30.9448652 C19.4717334,30.9095263 19.5421255,30.962342 19.5421255,31.1033141 L19.5421255,42.066549 C19.5421255,42.2075211 19.4717334,42.2956753 19.3309471,42.3310143 L18.5999449,42.5145042 C18.5024775,42.5389696 18.4212558,42.5105599 18.3562775,42.4292742 L12.8818833,34.9222135 C12.8602238,34.8951182 12.8385647,34.8870001 12.8169053,34.8978589 C12.7952459,34.9087176 12.7844163,34.9358346 12.7844163,34.9792107 L12.8006608,43.7587338 C12.8006608,43.8997059 12.7302687,43.9878601 12.5894824,44.0231991 L11.8584802,44.206689 Z M24.0256057,41.1526013 C23.8848194,41.1879402 23.8144273,41.1351245 23.8144273,40.9941524 L23.8144273,30.0309175 C23.8144273,29.8899454 23.8848194,29.8017912 24.0256057,29.7664522 L27.8105727,28.8163822 C28.8827146,28.5472623 29.735542,28.6151328 30.3690804,29.0199957 C31.0026188,29.4248586 31.3193833,30.1098381 31.3193833,31.0749546 L31.3193833,36.1824557 C31.3193833,37.1475722 31.0026188,37.9915747 30.3690804,38.7144884 C29.735542,39.437402 28.8827146,39.9334114 27.8105727,40.2025313 L24.0256057,41.1526013 Z M24.9677863,39.826286 C24.9677863,39.8805061 24.9948602,39.9008198 25.0490088,39.8872279 L27.8593062,39.1818111 C28.5632377,39.0051162 29.1236671,38.658409 29.5406112,38.1416791 C29.9575553,37.6249491 30.1660242,37.0195851 30.1660242,36.3255687 L30.1660242,31.5271202 C30.1660242,30.8222598 29.9602627,30.3154504 29.5487335,30.0066767 C29.1372043,29.697903 28.5740674,29.6332238 27.8593062,29.812637 L25.0490088,30.5180538 C24.9948602,30.5316457 24.9677863,30.5655512 24.9677863,30.6197712 L24.9677863,39.826286 Z M19.2172357,54.3620041 C19.2172357,54.5029762 19.1468436,54.5911304 19.0060573,54.6264694 L13.0930617,56.1106989 C13.0389131,56.1242908 13.0118392,56.1581963 13.0118392,56.2124163 L13.0118392,60.1975685 C13.0118392,60.2517885 13.0389131,60.2721023 13.0930617,60.2585103 L17.219163,59.2228117 C17.3599493,59.1874727 17.4303414,59.2402885 17.4303414,59.3812606 L17.4303414,59.966834 C17.4303414,60.107806 17.3599493,60.1959602 17.219163,60.2312992 L13.0930617,61.2669978 C13.0389131,61.2805897 13.0118392,61.3144952 13.0118392,61.3687152 L13.0118392,65.4189311 C13.0118392,65.4731511 13.0389131,65.4934649 13.0930617,65.479873 L19.0060573,63.9956435 C19.1468436,63.9603045 19.2172357,64.0131202 19.2172357,64.1540923 L19.2172357,64.7396657 C19.2172357,64.8806378 19.1468436,64.968792 19.0060573,65.0041309 L12.0696586,66.7452464 C11.9288723,66.7805853 11.8584802,66.7277696 11.8584802,66.5867975 L11.8584802,55.6235626 C11.8584802,55.4825905 11.9288723,55.3944363 12.0696586,55.3590973 L19.0060573,53.6179819 C19.1468436,53.5826429 19.2172357,53.6354587 19.2172357,53.7764307 L19.2172357,54.3620041 Z M26.4622797,63.2626612 C25.6717104,63.4611032 24.9813264,63.5096933 24.3911068,63.408433 C23.8008873,63.3071727 23.346046,63.0662072 23.0265694,62.6855293 C22.7070927,62.3048513 22.5473568,61.8108876 22.5473568,61.2036233 L22.5473568,60.7481773 C22.5473568,60.6072052 22.6177489,60.519051 22.7585352,60.4837121 L23.4570485,60.3083772 C23.5978348,60.2730383 23.6682269,60.325854 23.6682269,60.4668261 L23.6682269,60.8572084 C23.6682269,61.4753167 23.9281362,61.9143152 24.4479626,62.174217 C24.9677889,62.4341188 25.6662952,62.453975 26.5435022,62.233786 C27.3773904,62.0244705 28.0109193,61.689235 28.4441079,61.2280696 C28.8772966,60.7669041 29.0938877,60.243541 29.0938877,59.6579647 C29.0938877,59.2784245 28.9937143,58.9782539 28.7933645,58.7574438 C28.5930148,58.5366338 28.2870799,58.3585966 27.8755507,58.223327 C27.4640214,58.0880574 26.8738107,57.9596891 26.1049009,57.8382181 C25.2926721,57.7167766 24.6618506,57.5904691 24.2124174,57.4592919 C23.7629842,57.3281147 23.4001941,57.1047077 23.1240363,56.7890642 C22.8478786,56.4734208 22.7098018,56.0228177 22.7098018,55.4372413 C22.7098018,54.5263449 23.0265662,53.7392726 23.6601046,53.076001 C24.293643,52.4127293 25.1681295,51.9411038 26.2835903,51.6611104 C27.4748591,51.3620883 28.4170303,51.4075325 29.1101322,51.7974443 C29.803234,52.1873561 30.1497797,52.8485943 30.1497797,53.7811788 L30.1497797,54.0902314 C30.1497797,54.2312035 30.0793876,54.3193577 29.9386013,54.3546967 L29.2238436,54.5341091 C29.0830573,54.569448 29.0126652,54.5166323 29.0126652,54.3756602 L29.0126652,54.1316713 C29.0126652,53.502719 28.7690002,53.0487991 28.281663,52.7698981 C27.7943258,52.4909971 27.1066491,52.4630007 26.2186123,52.6859081 C25.4497025,52.8789133 24.8621992,53.1836191 24.4560848,53.6000346 C24.0499704,54.0164501 23.8469163,54.5228604 23.8469163,55.1192807 C23.8469163,55.5096649 23.9470897,55.8071246 24.1474394,56.0116687 C24.3477892,56.2162127 24.6347724,56.3664754 25.0083976,56.4624613 C25.3820228,56.5584472 25.9532818,56.6617521 26.7221916,56.7723791 C27.5127609,56.8992573 28.1517046,57.0425028 28.6390418,57.2021197 C29.1263791,57.3617366 29.516243,57.6081683 29.8086454,57.9414222 C30.1010477,58.2746761 30.2472467,58.7340843 30.2472467,59.3196606 C30.2472467,60.2197131 29.9142379,61.0271286 29.2482104,61.7419314 C28.5821828,62.4567343 27.6535485,62.9636391 26.4622797,63.2626612 Z M34.340859,61.1549203 C34.2000727,61.1902593 34.1296806,61.1374435 34.1296806,60.9964714 L34.1296806,50.0332365 C34.1296806,49.8922644 34.2000727,49.8041102 34.340859,49.7687712 L35.0718612,49.5852813 C35.2126475,49.5499423 35.2830396,49.6027581 35.2830396,49.7437302 L35.2830396,60.7069651 C35.2830396,60.8479372 35.2126475,60.9360914 35.0718612,60.9714304 L34.340859,61.1549203 Z M43.2590859,59.0464707 C42.5010058,59.2367575 41.8349882,59.2548327 41.2610132,59.1006968 C40.6870382,58.946561 40.2403191,58.6384937 39.9208425,58.1764857 C39.6013659,57.7144777 39.44163,57.1310522 39.44163,56.4261919 L39.44163,51.9367959 C39.44163,51.2319356 39.6013659,50.5683191 39.9208425,49.9459265 C40.2403191,49.3235339 40.6870382,48.7912034 41.2610132,48.3489189 C41.8349882,47.9066345 42.5010058,47.5903536 43.2590859,47.4000668 C44.0063363,47.2124984 44.6696465,47.1923919 45.2490363,47.3397466 C45.8284262,47.4871012 46.2751453,47.7843247 46.589207,48.2314259 C46.9032688,48.6785271 47.0602974,49.2328115 47.0602974,49.8942959 L47.0602974,50.0569551 C47.0602974,50.1979272 46.9899053,50.2860814 46.8491189,50.3214204 L46.1181167,50.5049103 C45.9773304,50.5402493 45.9069383,50.4982774 45.9069383,50.3789933 L45.9069383,50.2000681 C45.9069383,49.4735197 45.6659808,48.9430134 45.1840584,48.6085332 C44.702136,48.274053 44.0604849,48.207394 43.2590859,48.4085543 C42.4576869,48.6097147 41.8133284,49.0045986 41.3259912,49.5932181 C40.838654,50.1818376 40.594989,50.8556774 40.594989,51.6147578 L40.594989,56.1692174 C40.594989,56.9282978 40.8440687,57.4784531 41.3422357,57.8196997 C41.8404026,58.1609464 42.4955907,58.2296293 43.3078194,58.0257506 C44.0983887,57.8273086 44.7292102,57.4520884 45.2003029,56.9000785 C45.6713955,56.3480686 45.9069383,55.7087991 45.9069383,54.9822507 L45.9069383,53.5183172 C45.9069383,53.4640972 45.8798644,53.4437835 45.8257159,53.4573754 L43.5027533,54.0404656 C43.361967,54.0758045 43.2915749,54.0229888 43.2915749,53.8820167 L43.2915749,53.2964433 C43.2915749,53.1554712 43.361967,53.067317 43.5027533,53.0319781 L46.8491189,52.192002 C46.9899053,52.156663 47.0602974,52.2094788 47.0602974,52.3504509 L47.0602974,54.3999577 C47.0602974,55.5602663 46.716459,56.5520346 46.028772,57.3752922 C45.341085,58.1985498 44.4178656,58.7556038 43.2590859,59.0464707 Z M51.3163546,56.8938767 C51.1755683,56.9292157 51.1051762,56.8763999 51.1051762,56.7354278 L51.1051762,45.7721929 C51.1051762,45.6312208 51.1755683,45.5430666 51.3163546,45.5077276 L52.0473568,45.3242377 C52.1448243,45.2997723 52.2260459,45.328182 52.2910242,45.4094678 L57.749174,52.8880741 C57.7708334,52.9151694 57.7924925,52.9232875 57.814152,52.9124288 C57.8358114,52.90157 57.846641,52.874453 57.846641,52.831077 L57.846641,44.0800081 C57.846641,43.9390361 57.9170331,43.8508819 58.0578194,43.8155429 L58.7888216,43.632053 C58.9296079,43.596714 59,43.6495297 59,43.7905018 L59,54.7537368 C59,54.8947088 58.9296079,54.982863 58.7888216,55.018202 L58.0578194,55.2016919 C57.9603519,55.2261574 57.8791303,55.1977476 57.814152,55.1164619 L52.3397577,47.6094012 C52.3180983,47.582306 52.2964392,47.5741878 52.2747797,47.5850466 C52.2531203,47.5959054 52.2422908,47.6230224 52.2422908,47.6663984 L52.2585352,56.4459215 C52.2585352,56.5868936 52.1881431,56.6750478 52.0473568,56.7103868 L51.3163546,56.8938767 Z M15.1886013,88.6840491 C14.4196915,88.8770542 13.7428443,88.8897149 13.1580396,88.7220314 C12.573235,88.5543479 12.1211011,88.225952 11.8016244,87.736834 C11.4821478,87.247716 11.3224119,86.6290481 11.3224119,85.8808117 L11.3224119,81.781798 C11.3224119,81.0335617 11.4821478,80.3347026 11.8016244,79.6852001 C12.1211011,79.0356975 12.573235,78.4803201 13.1580396,78.0190513 C13.7428443,77.5577824 14.4196915,77.2306503 15.1886013,77.0376452 C15.9575112,76.84464 16.6370657,76.8312998 17.2272852,76.9976241 C17.8175048,77.1639484 18.2723461,77.4916646 18.5918227,77.9807826 C18.9112993,78.4699006 19.0710352,79.0885686 19.0710352,79.836805 L19.0710352,83.9358186 C19.0710352,84.684055 18.9112993,85.382914 18.5918227,86.0324166 C18.2723461,86.6819192 17.8175048,87.2379762 17.2272852,87.7006042 C16.6370657,88.1632322 15.9575112,88.4910439 15.1886013,88.6840491 Z M15.1886013,87.6918275 C16.0116598,87.4852304 16.6722626,87.0700032 17.1704295,86.4461333 C17.6685965,85.8222634 17.9176762,85.0982671 17.9176762,84.2741227 L17.9176762,80.1100453 C17.9176762,79.2859009 17.6685965,78.6842374 17.1704295,78.3050367 C16.6722626,77.9258361 16.0116598,77.8395356 15.1886013,78.0461326 C14.3763726,78.2500114 13.7211846,78.6665904 13.2230176,79.2958823 C12.7248507,79.9251741 12.4757709,80.6518814 12.4757709,81.4760258 L12.4757709,85.6401032 C12.4757709,86.4642476 12.7248507,87.0632002 13.2230176,87.4369788 C13.7211846,87.8107575 14.3763726,87.8957062 15.1886013,87.6918275 Z M23.4570485,86.4784468 C23.3162621,86.5137858 23.24587,86.46097 23.24587,86.319998 L23.24587,75.356763 C23.24587,75.2157909 23.3162621,75.1276367 23.4570485,75.0922978 L24.1880507,74.9088078 C24.2855181,74.8843424 24.3667398,74.9127521 24.4317181,74.9940379 L29.8898678,82.4726443 C29.9115273,82.4997395 29.9331864,82.5078576 29.9548458,82.4969989 C29.9765052,82.4861401 29.9873348,82.4590231 29.9873348,82.4156471 L29.9873348,73.6645782 C29.9873348,73.5236062 30.0577269,73.435452 30.1985132,73.400113 L30.9295154,73.2166231 C31.0703017,73.1812841 31.1406938,73.2340999 31.1406938,73.3750719 L31.1406938,84.3383069 C31.1406938,84.479279 31.0703017,84.5674332 30.9295154,84.6027721 L30.1985132,84.786262 C30.1010458,84.8107275 30.0198241,84.7823178 29.9548458,84.701032 L24.4804515,77.1939713 C24.4587921,77.1668761 24.437133,77.158758 24.4154736,77.1696167 C24.3938141,77.1804755 24.3829846,77.2075925 24.3829846,77.2509685 L24.3992291,86.0304917 C24.3992291,86.1714637 24.328837,86.2596179 24.1880507,86.2949569 L23.4570485,86.4784468 Z M42.7555066,71.0451944 C42.7555066,71.1861665 42.6851145,71.2743207 42.5443282,71.3096597 L36.6475771,72.7898117 C36.5934285,72.8034036 36.5663546,72.8373091 36.5663546,72.8915291 L36.5663546,76.8766812 C36.5663546,76.9309013 36.5934285,76.951215 36.6475771,76.9376231 L40.7574339,75.906002 C40.8982202,75.8706631 40.9686123,75.9234788 40.9686123,76.0644509 L40.9686123,76.6500243 C40.9686123,76.7909964 40.8982202,76.8791506 40.7574339,76.9144895 L36.6475771,77.9461106 C36.5934285,77.9597025 36.5663546,77.993608 36.5663546,78.047828 L36.5663546,82.976404 C36.5663546,83.117376 36.4959625,83.2055302 36.3551762,83.2408692 L35.624174,83.4243591 C35.4833877,83.4596981 35.4129956,83.4068823 35.4129956,83.2659103 L35.4129956,72.3026753 C35.4129956,72.1617032 35.4833877,72.073549 35.624174,72.0382101 L42.5443282,70.3011722 C42.6851145,70.2658332 42.7555066,70.318649 42.7555066,70.4596211 L42.7555066,71.0451944 Z" id="FRONT-END-DESIGN-CON-Copy" fill="#FFFFFF"></path>
                        <path d="M7.69988987,12.0698585 C7.69988987,12.2108306 7.62949776,12.2989848 7.48871145,12.3343238 L1.59196035,13.8144757 C1.53781177,13.8280676 1.51073788,13.8619731 1.51073788,13.9161931 L1.51073788,17.9013453 C1.51073788,17.9555653 1.53781177,17.9758791 1.59196035,17.9622872 L5.70181718,16.9306661 C5.84260349,16.8953271 5.91299559,16.9481429 5.91299559,17.089115 L5.91299559,17.6746883 C5.91299559,17.8156604 5.84260349,17.9038146 5.70181718,17.9391536 L1.59196035,18.9707747 C1.53781177,18.9843666 1.51073788,19.018272 1.51073788,19.0724921 L1.51073788,24.001068 C1.51073788,24.1420401 1.44034578,24.2301943 1.29955947,24.2655333 L0.568557269,24.4490232 C0.427770955,24.4843622 0.357378854,24.4315464 0.357378854,24.2905743 L0.357378854,13.3273394 C0.357378854,13.1863673 0.427770955,13.0982131 0.568557269,13.0628741 L7.48871145,11.3258363 C7.62949776,11.2904973 7.69988987,11.343313 7.69988987,11.4842851 L7.69988987,12.0698585 Z M7.71613436,34.6573465 C7.71613436,34.7983186 7.64574226,34.8864728 7.50495594,34.9218118 L1.59196035,36.4060413 C1.53781177,36.4196332 1.51073788,36.4535387 1.51073788,36.5077587 L1.51073788,40.4929109 C1.51073788,40.5471309 1.53781177,40.5674447 1.59196035,40.5538528 L5.71806167,39.5181541 C5.85884799,39.4828152 5.92924009,39.5356309 5.92924009,39.676603 L5.92924009,40.2621764 C5.92924009,40.4031484 5.85884799,40.4913026 5.71806167,40.5266416 L1.59196035,41.5623402 C1.53781177,41.5759322 1.51073788,41.6098376 1.51073788,41.6640577 L1.51073788,45.7142735 C1.51073788,45.7684936 1.53781177,45.7888073 1.59196035,45.7752154 L7.50495594,44.2909859 C7.64574226,44.2556469 7.71613436,44.3084626 7.71613436,44.4494347 L7.71613436,45.0350081 C7.71613436,45.1759802 7.64574226,45.2641344 7.50495594,45.2994734 L0.568557269,47.0405888 C0.427770955,47.0759277 0.357378854,47.023112 0.357378854,46.8821399 L0.357378854,35.918905 C0.357378854,35.7779329 0.427770955,35.6897787 0.568557269,35.6544397 L7.50495594,33.9133243 C7.64574226,33.8779853 7.71613436,33.9308011 7.71613436,34.0717732 L7.71613436,34.6573465 Z M0.568557269,69.6321543 C0.427770955,69.6674933 0.357378854,69.6146776 0.357378854,69.4737055 L0.357378854,58.5104705 C0.357378854,58.3694985 0.427770955,58.2813443 0.568557269,58.2460053 L4.35352423,57.2959353 C5.42566615,57.0268154 6.27849353,57.0946859 6.91203194,57.4995488 C7.54557035,57.9044117 7.8623348,58.5893911 7.8623348,59.5545077 L7.8623348,64.6620088 C7.8623348,65.6271253 7.54557035,66.4711277 6.91203194,67.1940414 C6.27849353,67.9169551 5.42566615,68.4129645 4.35352423,68.6820843 L0.568557269,69.6321543 Z M1.51073788,68.3058391 C1.51073788,68.3600591 1.53781177,68.3803729 1.59196035,68.366781 L4.40225771,67.6613642 C5.10618927,67.4846693 5.66661869,67.1379621 6.08356277,66.6212322 C6.50050685,66.1045022 6.70897577,65.4991381 6.70897577,64.8051218 L6.70897577,60.0066732 C6.70897577,59.3018129 6.50321424,58.7950034 6.09168502,58.4862298 C5.6801558,58.1774561 5.11701899,58.1127769 4.40225771,58.2921901 L1.59196035,58.9976069 C1.53781177,59.0111988 1.51073788,59.0451043 1.51073788,59.0993243 L1.51073788,68.3058391 Z M3.81745595,91.5546025 C3.0593758,91.7448893 2.39335823,91.7629645 1.81938326,91.6088286 C1.24540829,91.4546928 0.798689189,91.1439145 0.479212555,90.6764845 C0.159735921,90.2090545 0,89.6174962 0,88.9017918 L0,84.4286618 C0,83.7238015 0.159735921,83.0601849 0.479212555,82.4377924 C0.798689189,81.8153998 1.24540829,81.2830693 1.81938326,80.8407848 C2.39335823,80.3985004 3.0593758,80.0822195 3.81745595,79.8919327 C4.57553609,79.7016459 5.24155366,79.6808598 5.81552863,79.8295737 C6.3895036,79.9782875 6.8362227,80.278222 7.15569934,80.729386 C7.47517597,81.1805499 7.63491189,81.7531315 7.63491189,82.4471479 C7.63491189,82.5447439 7.56451979,82.6220543 7.42373348,82.6790813 L6.69273128,82.911369 L6.64399779,82.9236016 C6.60067893,82.9344752 6.56277549,82.9331455 6.53028634,82.9196127 C6.49779719,82.9060798 6.48155286,82.8884696 6.48155286,82.8667816 L6.48155286,82.7691861 C6.48155286,81.9992617 6.2378879,81.4450363 5.75055066,81.1064932 C5.26321342,80.7679502 4.61885496,80.6992599 3.81745595,80.9004202 C3.01605693,81.1015805 2.37169847,81.4964645 1.88436123,82.085084 C1.39702399,82.6737034 1.15335903,83.3475433 1.15335903,84.1066237 L1.15335903,88.6610833 C1.15335903,89.4201637 1.39702399,89.9716781 1.88436123,90.3156431 C2.37169847,90.6596082 3.01605693,90.7310094 3.81745595,90.5298491 C4.61885496,90.3286888 5.26321342,89.9365158 5.75055066,89.3533183 C6.2378879,88.7701209 6.48155286,88.0935701 6.48155286,87.3236457 C6.48155286,87.1935176 6.55194496,87.1162073 6.69273128,87.0917123 L7.42373348,86.9407542 C7.56451979,86.9054152 7.63491189,86.9148556 7.63491189,86.9690757 L7.63491189,87.0504053 C7.63491189,87.7552657 7.47517597,88.4161712 7.15569934,89.0331418 C6.8362227,89.6501124 6.3895036,90.177021 5.81552863,90.6138834 C5.24155366,91.0507458 4.57553609,91.3643158 3.81745595,91.5546025 Z" id="Combined-Shape" fill="#02F694"></path>
                    </g>
                </g>
            </g>
        </g>
    </g>
</svg>