<?xml version="1.0" encoding="UTF-8"?>
<svg width="36px" height="36px" viewBox="0 0 36 36" version="1.1" xmlns="http://www.w3.org/2000/svg" xmlns:xlink="http://www.w3.org/1999/xlink">
    <!-- Generator: Sketch 49.3 (51167) - http://www.bohemiancoding.com/sketch -->
    <title>icon_fb</title>
    <desc>Created with Sketch.</desc>
    <defs></defs>
    <g id="mobile" stroke="none" stroke-width="1" fill="none" fill-rule="evenodd">
        <g id="fedc_mobile_menu" transform="translate(-162.000000, -490.000000)" fill="#C2B9EE" fill-rule="nonzero">
            <path d="M180,490 C170.074841,490 162,498.074841 162,508 C162,517.924434 170.074841,526 180,526 C189.924434,526 198,517.924434 198,508 C198,498.074841 189.925884,490 180,490 Z M184.476436,508.63369 L181.547974,508.63369 C181.547974,513.312414 181.547974,519.071457 181.547974,519.071457 L177.208572,519.071457 C177.208572,519.071457 177.208572,513.368243 177.208572,508.63369 L175.145815,508.63369 L175.145815,504.944655 L177.208572,504.944655 L177.208572,502.558527 C177.208572,500.849593 178.020624,498.179248 181.587851,498.179248 L184.803432,498.191573 L184.803432,501.772577 C184.803432,501.772577 182.849432,501.772577 182.469508,501.772577 C182.089584,501.772577 181.549424,501.962539 181.549424,502.777491 L181.549424,504.94538 L184.855635,504.94538 L184.476436,508.63369 Z" id="icon_fb"></path>
        </g>
    </g>
</svg>