<?xml version="1.0" encoding="UTF-8"?>
<svg width="120px" height="63px" viewBox="0 0 120 63" version="1.1" xmlns="http://www.w3.org/2000/svg" xmlns:xlink="http://www.w3.org/1999/xlink">
    <!-- Generator: Sketch 49.3 (51167) - http://www.bohemiancoding.com/sketch -->
    <title>logo_index</title>
    <desc>Created with Sketch.</desc>
    <defs></defs>
    <g id="mobile" stroke="none" stroke-width="1" fill="none" fill-rule="evenodd">
        <g id="fedc_mobile_about" transform="translate(-119.000000, -192.000000)" fill="#02F694">
            <path d="M233.034998,233.150589 L221.545857,236.258721 C220.883467,236.437744 220.458223,236.353946 220.294916,236.227161 C220.142928,236.109627 220.048609,235.779333 220.048609,235.364698 L220.048609,218.981709 C220.048609,213.930994 223.470505,207.377363 228.381026,206.049116 L235.487294,204.126667 C238.014507,203.443226 239.51445,200.820467 238.837508,198.268447 C238.160028,195.716971 235.561133,194.202628 233.034998,194.886613 L225.92873,196.809062 C216.317346,199.408966 210.573584,210.12473 210.573584,218.981709 L210.573584,235.364698 C210.573584,238.78952 212.014779,241.870445 214.526901,243.816292 C216.317346,245.203851 218.527646,245.923749 220.861909,245.923749 C221.891334,245.923749 222.945552,245.783361 223.998153,245.498775 L235.487294,242.390643 C238.014507,241.707203 239.51445,239.084444 238.837508,236.532968 C238.160028,233.980948 235.56275,232.467149 233.034998,233.150589 Z M187.718185,246.201261 C185.112823,246.982647 182.258997,247.127388 180.885711,244.961708 C180.595208,244.503542 180.395791,243.803233 180.348362,243.210663 L180.348362,225.620226 C180.348362,223.568815 182.001371,221.90048 184.033273,221.90048 C186.065176,221.90048 187.718185,223.568815 187.718185,225.620226 L187.718185,246.201261 Z M203.767519,207.489456 C201.186949,205.490283 197.734871,204.877037 194.296267,205.807517 L182.807125,208.915649 C180.279913,209.59909 178.77997,212.221848 179.456912,214.773324 C180.134392,217.3248 182.732209,218.8386 185.259421,218.155703 L196.749102,215.047571 C197.410413,214.868549 197.836197,214.951802 197.999503,215.078587 C198.151492,215.196122 198.245811,215.526959 198.245811,215.941594 L198.245811,232.32404 C198.245811,236.804495 195.832859,242.157207 191.859062,244.415935 C191.071093,244.863763 189.976992,245.403006 188.770786,245.848114 L188.770786,225.620226 C188.770786,222.978967 186.649954,220.837229 184.033273,220.837229 C181.416593,220.837229 179.295761,222.978967 179.295761,225.620226 L179.295761,244.389272 C179.295761,244.389272 179.289832,257.72072 192.36569,254.497231 C202.032048,252.113894 207.720836,241.181563 207.720836,232.32404 L207.720836,215.941594 C207.720836,212.516228 206.280179,209.435848 203.767519,207.489456 Z M162.626077,204.581024 L174.36961,201.40433 C176.896822,200.720346 178.396765,198.097587 177.719285,195.546111 C177.042343,192.994635 174.445065,191.480292 171.917314,192.164277 L160.173781,195.34097 C154.163769,196.966863 149.4559,203.161361 149.4559,209.442922 L149.4559,214.625318 C149.460211,214.624774 149.463984,214.625862 149.468296,214.625318 C149.507101,215.02907 149.682265,215.976419 150.493948,216.607079 C151.29054,217.225767 152.433688,217.340036 153.889435,216.946078 L171.17408,212.331221 C173.373062,211.735931 175.640492,213.058737 176.229582,215.277743 C176.514695,216.352965 176.368636,217.476071 175.817273,218.440289 C175.265911,219.403962 174.375539,220.093388 173.311081,220.381783 L155.714914,225.080982 C155.653471,225.095674 149.719993,226.576825 149.467757,232.404028 C149.463445,232.405117 149.460211,232.407837 149.4559,232.408381 L149.4559,232.642362 C149.4559,232.669025 149.457516,232.695144 149.458055,232.721807 C149.457516,232.743572 149.4559,232.764794 149.4559,232.787103 L149.459672,232.787103 C149.499556,236.202131 150.938057,239.256393 153.425924,241.183739 C155.183493,242.545179 157.34313,243.252018 159.615412,243.252018 C160.605492,243.252018 161.617132,243.11816 162.626077,242.845001 L174.36961,239.668307 C176.896822,238.984322 178.396765,236.362108 177.719285,233.810088 C177.042343,231.258612 174.445065,229.744268 171.917314,230.428253 L160.173781,233.604947 C159.678471,233.738806 159.324909,233.696363 159.19394,233.594608 C159.062971,233.493398 158.930925,233.159296 158.930925,232.642362 L158.930925,225.314419 L173.581642,221.402047 C174.916661,221.041281 176.032321,220.176642 176.723275,218.968105 C177.41423,217.760113 177.598017,216.351877 177.240144,215.004584 C176.50176,212.222937 173.660331,210.56494 170.90298,211.310957 L158.930925,214.507239 L158.930925,209.442922 C158.930925,207.457352 160.72676,205.094693 162.626077,204.581024 Z M132.171255,213.108254 L143.914789,209.93156 C146.442001,209.247575 147.941944,206.625361 147.265002,204.073341 C146.587522,201.521865 143.989705,200.007521 141.462493,200.691506 L129.718959,203.8682 C123.708947,205.494092 119.001078,211.688046 119.001078,217.970151 L119.001078,222.955024 L119,222.955024 C119,222.957745 119.001078,222.976246 119.001078,222.984408 L119.001078,223.050249 C119.002156,223.050249 119.003234,223.050793 119.004312,223.050793 C119.022637,223.37238 119.151449,224.44597 120.038049,225.134308 C120.83518,225.752996 121.977788,225.867266 123.433536,225.473308 L140.718719,220.85845 C142.917701,220.26316 145.185132,221.585966 145.773683,223.804972 C146.059335,224.880194 145.912736,226.003301 145.361374,226.967518 C144.810011,227.931191 143.920178,228.620618 142.855181,228.909012 L125.259014,233.608212 C125.197572,233.622904 119.226905,235.113849 119.01024,240.988393 C119.007007,240.988937 119.004312,240.991113 119.001078,240.991658 L119.001078,241.286038 C119.001078,241.295832 119,241.304538 119,241.314333 L119.001078,241.314333 L119.001078,247.494683 C119.001078,250.135943 121.12191,252.277681 123.73859,252.277681 C126.355271,252.277681 128.476103,250.135943 128.476103,247.494683 L128.476103,233.841648 L143.126281,229.929276 C144.460761,229.568511 145.57696,228.703871 146.267915,227.495335 C146.958869,226.287342 147.142657,224.879106 146.784244,223.531814 C146.0464,220.750166 143.204431,219.092169 140.447619,219.838186 L128.476103,223.034469 L128.476103,217.970151 C128.476103,215.984582 130.271938,213.621922 132.171255,213.108254 Z" id="logo_index"></path>
        </g>
    </g>
</svg>